<svg xmlns="http://www.w3.org/2000/svg" xmlns:xlink="http://www.w3.org/1999/xlink" width="500" zoomAndPan="magnify" viewBox="0 0 375 374.999991" height="500" preserveAspectRatio="xMidYMid meet" version="1.0"><defs><g/><clipPath id="a768e59668"><path d="M 32.707031 3.167969 L 337.785156 3.167969 L 337.785156 371.273438 L 32.707031 371.273438 Z M 32.707031 3.167969 " clip-rule="nonzero"/></clipPath></defs><rect x="-37.5" width="450" fill="#ffffff" y="-37.499999" height="449.999989" fill-opacity="1"/><rect x="-37.5" width="450" fill="#ffffff" y="-37.499999" height="449.999989" fill-opacity="1"/><g clip-path="url(#a768e59668)"><path fill="#09ad55" d="M 185.058594 3.15625 Z M 185.058594 3.15625 Z M 185.058594 12.246094 Z M 185.058594 12.246094 Z M 185.058594 12.246094 Z M 185.058594 12.246094 Z M 185.058594 12.246094 L 185.058594 187.441406 Z M 185.058594 3.15625 L 32.207031 47.863281 C 32.121094 109.523438 34.039062 155.289062 37.957031 185.171875 C 39.429688 197.222656 41.367188 208.765625 43.769531 219.796875 L 47.808594 235.863281 C 50.757812 246.289062 54.347656 256.007812 58.574219 265.027344 C 62.839844 274 67.742188 282.273438 73.28125 289.839844 C 75.429688 294.3125 84.882812 304.402344 101.644531 320.113281 C 118.957031 335.214844 146.761719 352.417969 185.058594 371.722656 L 185.058594 12.246094 L 185.058594 362.632812 C 148.648438 344.277344 122.214844 327.921875 105.757812 313.566406 C 89.824219 298.632812 80.835938 289.042969 78.796875 284.789062 C 73.53125 277.59375 68.867188 269.730469 64.8125 261.199219 C 60.796875 252.625 57.382812 243.386719 54.578125 233.476562 L 50.738281 218.203125 C 48.457031 207.714844 46.613281 196.742188 45.210938 185.28125 C 41.488281 156.875 39.664062 113.367188 39.746094 54.75 L 185.058594 12.246094 Z M 185.058594 3.15625 L 185.058594 12.246094 L 330.371094 54.75 C 330.449219 113.367188 328.628906 156.875 324.90625 185.28125 C 323.503906 196.742188 321.660156 207.714844 319.378906 218.203125 L 315.539062 233.476562 C 312.734375 243.386719 309.320312 252.625 305.304688 261.199219 C 301.246094 269.730469 296.585938 277.59375 291.320312 284.789062 C 289.28125 289.042969 280.292969 298.632812 264.359375 313.566406 C 247.902344 327.921875 221.46875 344.277344 185.058594 362.632812 L 185.058594 187.441406 L 185.058594 371.722656 C 223.355469 352.417969 251.160156 335.214844 268.472656 320.113281 C 285.234375 304.402344 294.6875 294.3125 296.835938 289.839844 C 302.375 282.273438 307.277344 274 311.542969 265.027344 C 315.769531 256.007812 319.359375 246.289062 322.308594 235.863281 L 326.347656 219.796875 C 328.75 208.765625 330.6875 197.222656 332.160156 185.171875 C 336.078125 155.289062 337.996094 109.523438 337.910156 47.863281 Z M 185.058594 3.15625 " fill-opacity="1" fill-rule="nonzero"/></g><path fill="#09ad55" d="M 185.058594 21.324219 Z M 185.058594 21.324219 Z M 185.058594 21.324219 L 47.273438 61.625 C 47.199219 117.203125 48.925781 158.460938 52.457031 185.394531 C 53.785156 196.257812 55.535156 206.664062 57.699219 216.609375 L 61.335938 231.089844 C 64 240.488281 67.234375 249.25 71.042969 257.378906 C 74.886719 265.46875 79.308594 272.925781 84.300781 279.746094 C 86.238281 283.777344 94.757812 292.875 109.867188 307.035156 C 125.472656 320.644531 150.535156 336.152344 185.058594 353.558594 Z M 185.058594 21.324219 L 185.058594 353.558594 C 219.582031 336.152344 244.644531 320.644531 260.25 307.035156 C 275.359375 292.875 283.878906 283.777344 285.816406 279.746094 C 290.808594 272.925781 295.230469 265.46875 299.074219 257.378906 C 302.882812 249.25 306.121094 240.488281 308.78125 231.089844 L 312.417969 216.609375 C 314.585938 206.664062 316.332031 196.257812 317.660156 185.394531 C 321.191406 158.460938 322.917969 117.203125 322.84375 61.625 Z M 185.058594 21.324219 " fill-opacity="1" fill-rule="nonzero"/><g fill="#ffffff" fill-opacity="1"><g transform="translate(66.276302, 253.529045)"><g><path d="M 173.421875 17.828125 C 159.859375 17.828125 151.078125 10.90625 145.5 -0.53125 C 185.921875 -10.640625 213.3125 -41.765625 213.3125 -93.09375 C 213.3125 -156.40625 171.5625 -189.375 114.640625 -189.375 C 57.453125 -189.375 15.6875 -156.40625 15.6875 -93.09375 C 15.6875 -29.796875 57.453125 3.1875 114.375 3.1875 C 119.6875 31.921875 133.796875 50.53125 163.578125 50.53125 C 193.375 50.53125 210.65625 29.53125 210.65625 -11.703125 L 208.796875 -11.703125 C 201.609375 11.171875 188.046875 17.828125 173.421875 17.828125 Z M 114.640625 -177.40625 C 147.09375 -177.40625 167.03125 -148.6875 167.03125 -93.09375 C 167.03125 -53.734375 157.203125 -27.921875 139.90625 -16.21875 C 139.109375 -19.421875 138.3125 -22.875 137.78125 -26.328125 C 131.921875 -63.84375 121.5625 -80.859375 98.140625 -80.859375 C 84.578125 -80.859375 73.140625 -73.140625 67.03125 -52.140625 C 63.84375 -63.5625 62.234375 -77.140625 62.234375 -93.09375 C 62.234375 -148.6875 81.921875 -177.40625 114.640625 -177.40625 Z M 72.609375 -36.703125 C 75.28125 -55.859375 83.78125 -68.09375 94.6875 -68.09375 C 106.390625 -68.09375 110.65625 -55.59375 111.71875 -24.203125 C 111.984375 -18.890625 112.25 -13.828125 112.78125 -8.78125 C 94.953125 -9.578125 81.125 -18.890625 72.609375 -36.703125 Z M 72.609375 -36.703125 "/></g></g></g></svg>