<svg xmlns="http://www.w3.org/2000/svg" xmlns:xlink="http://www.w3.org/1999/xlink" width="500" zoomAndPan="magnify" viewBox="0 0 375 135.000003" height="180" preserveAspectRatio="xMidYMid meet" version="1.0"><defs><g/><clipPath id="d106ddb74f"><path d="M 41 0 L 373.621094 0 L 373.621094 134.007812 L 41 134.007812 Z M 41 0 " clip-rule="nonzero"/></clipPath><clipPath id="26ee72c0ae"><path d="M 2.125 1.765625 L 110.464844 1.765625 L 110.464844 132 L 2.125 132 Z M 2.125 1.765625 " clip-rule="nonzero"/></clipPath></defs><g clip-path="url(#d106ddb74f)"><path stroke-linecap="butt" transform="matrix(1.011935, 0, 0, 1.011935, 113.115342, 18.386358)" fill="none" stroke-linejoin="miter" d="M 22.047299 55.938192 C 22.047299 55.559895 22.047299 55.146856 22.047299 54.702935 C 22.047299 54.243574 22.07046 53.745611 22.124502 53.209047 C 20.947148 55.513573 19.738912 57.497704 18.507516 59.161441 C 16.843779 61.465967 15.083538 63.183746 13.222932 64.310918 C 11.377767 65.43809 9.358894 66.001676 7.170174 66.001676 C 4.48735 66.001676 2.352672 65.140856 0.766139 63.426937 C -0.820394 61.709158 -1.611731 59.458674 -1.611731 56.667766 C -1.611731 55.162297 -1.538387 53.660687 -1.395561 52.166799 C -1.264315 50.661329 -1.013403 48.858626 -0.646686 46.76255 L 1.688721 33.402475 C 2.121061 30.889499 2.240727 29.106097 2.043857 28.059989 C 1.858569 27.01002 1.769785 26.488896 1.769785 26.488896 C 1.769785 26.488896 2.09018 26.369231 2.730969 26.13376 C 3.371759 25.882848 4.448748 25.759323 5.954218 25.759323 C 9.069381 25.759323 10.964728 26.376951 11.632539 27.608348 C 12.30035 28.839745 12.392994 30.881779 11.906612 33.73831 L 8.683363 52.325066 C 8.316646 54.629592 8.370689 56.32035 8.84163 57.393479 C 9.328013 58.466609 10.165671 59.007034 11.358466 59.007034 C 12.261748 59.007034 13.222932 58.509071 14.245879 57.513145 C 15.264966 56.517219 16.287913 55.212479 17.31086 53.602785 C 18.488215 51.834823 19.615387 49.769628 20.688516 47.41106 C 21.765506 45.056351 22.72669 42.585838 23.579789 40.003379 C 24.444469 37.42478 25.058237 34.954266 25.424954 32.599558 C 25.803251 30.395396 25.895896 28.832024 25.699027 27.901721 C 25.517598 26.959838 25.424954 26.488896 25.424954 26.488896 C 25.424954 26.488896 25.745349 26.369231 26.386138 26.13376 C 27.042369 25.882848 28.115498 25.759323 29.609387 25.759323 C 32.72841 25.759323 34.619897 26.376951 35.287708 27.608348 C 35.955519 28.839745 36.048163 30.881779 35.561781 33.73831 L 32.438897 51.912027 C 32.0606 54.336219 32.176405 56.123481 32.794033 57.277674 C 33.407802 58.428007 34.442329 59.007034 35.897616 59.007034 C 37.28728 59.007034 38.785029 58.377825 40.398584 57.119407 C 42.008278 55.849408 43.324598 54.13935 44.347545 51.989231 C 44.88411 51.989231 45.297149 52.155218 45.582802 52.483333 C 45.883896 52.796008 45.984261 53.332572 45.880036 54.093027 C 45.656146 55.166157 45.158183 56.378253 44.386147 57.729315 C 43.614112 59.064936 42.579584 60.361956 41.282564 61.616514 C 39.997125 62.874932 38.522537 63.9249 36.858801 64.762559 C 35.195064 65.588637 33.403941 66.001676 31.477713 66.001676 C 28.686804 66.001676 26.41316 65.129276 24.660639 63.388335 C 22.915839 61.643535 22.047299 59.161441 22.047299 55.938192 Z M 49.971824 48.29504 L 52.546563 33.402475 C 52.978903 30.835456 53.098568 29.040474 52.901699 28.021387 C 52.716411 26.99844 52.627627 26.488896 52.627627 26.488896 C 52.627627 26.488896 52.948021 26.369231 53.588811 26.13376 C 54.2296 25.882848 55.30273 25.759323 56.812059 25.759323 C 59.927223 25.759323 61.82257 26.376951 62.490381 27.608348 C 63.158192 28.839745 63.250836 30.881779 62.764453 33.73831 L 59.622269 51.912027 C 59.255552 54.336219 59.379078 56.123481 59.992846 57.277674 C 60.610474 58.428007 61.645002 59.007034 63.100289 59.007034 C 64.486093 59.007034 65.987702 58.377825 67.597396 57.119407 C 69.21095 55.849408 70.527271 54.13935 71.546358 51.989231 C 72.082922 51.989231 72.495962 52.155218 72.785475 52.483333 C 73.086569 52.796008 73.179213 53.332572 73.059547 54.093027 C 72.851098 55.166157 72.353135 56.378253 71.565659 57.729315 C 70.793623 59.064936 69.766816 60.361956 68.481377 61.616514 C 67.199798 62.874932 65.72521 63.9249 64.061473 64.762559 C 62.397737 65.588637 60.595034 66.001676 58.657224 66.001676 C 55.866316 66.001676 53.600391 65.129276 51.859451 63.388335 C 50.118511 61.643535 49.246111 59.161441 49.246111 55.938192 C 49.246111 55.139136 49.300153 54.073726 49.404378 52.738105 C 49.508603 51.387043 49.697752 49.908595 49.971824 48.29504 Z M 55.356772 13.696267 C 55.356772 12.032531 55.920358 10.650587 57.04753 9.550436 C 58.174702 8.450286 59.491023 7.89828 60.996492 7.89828 C 62.556004 7.89828 63.77196 8.384663 64.65208 9.353567 C 65.539921 10.310891 65.987702 11.515267 65.987702 12.970554 C 65.987702 14.356358 65.462718 15.626356 64.416609 16.780549 C 63.366641 17.934742 61.957676 18.509909 60.189715 18.509909 C 58.749869 18.509909 57.584095 18.058268 56.692394 17.154987 C 55.800693 16.236264 55.356772 15.085931 55.356772 13.696267 Z M 107.843609 39.200462 C 107.843609 42.315625 107.168078 45.230059 105.820876 47.943764 C 104.485254 50.642028 102.663251 53.012178 100.358724 55.054212 C 98.52514 56.717948 96.533288 58.06129 94.383169 59.084237 C 94.815509 59.292687 95.301892 59.57448 95.838456 59.929616 C 96.375021 60.269312 96.992649 60.794296 97.687481 61.500708 C 100.057631 60.581986 102.393038 59.562899 104.701424 58.435727 C 107.005951 57.308555 109.082726 56.169803 110.927891 55.01561 C 112.788497 53.865277 114.224483 52.85391 115.231989 51.989231 C 115.768554 51.989231 116.181593 52.155218 116.471106 52.483333 C 116.7722 52.796008 116.868705 53.255369 116.76448 53.857557 C 116.606213 54.552389 115.722232 55.513573 114.112538 56.744969 C 112.722874 57.818099 110.777344 59.068796 108.275949 60.497062 C 105.786134 61.913747 103.064709 63.372895 100.103953 64.878364 C 101.281307 67.082525 101.871914 69.653404 101.871914 72.60258 C 101.871914 75.339446 101.335349 77.991388 100.25836 80.558406 C 99.200671 83.140865 97.687481 85.445391 95.722651 87.475845 C 93.769401 89.517879 91.476455 91.143013 88.843814 92.347389 C 86.211173 93.567205 83.343061 94.177113 80.239478 94.177113 C 76.742157 94.177113 74.159698 93.408938 72.495962 91.876447 C 70.832225 90.343957 70.002287 88.294202 70.002287 85.727184 C 70.002287 83.526883 70.612195 81.338162 71.828151 79.164882 C 73.032526 76.991602 74.62678 75.069233 76.603191 73.409357 C 78.541 71.74562 80.691119 70.197689 83.045827 68.769423 C 85.404396 67.356598 88.195304 65.87043 91.418553 64.310918 C 91.314328 63.446238 91.13676 62.720525 90.885848 62.129917 C 90.650377 61.53931 90.422627 61.087669 90.198737 60.774995 C 88.600623 61.207335 87.180078 61.423505 85.9371 61.423505 C 84.925734 61.423505 84.153698 61.191894 83.617134 60.732533 C 83.080569 60.277032 82.810356 59.698005 82.810356 59.007034 C 85.70549 57.710014 88.31883 55.830107 90.650377 53.367314 C 92.981925 50.904521 94.83095 48.102032 96.193593 44.955987 C 97.567816 41.813802 98.254928 38.663897 98.254928 35.506272 C 98.254928 31.692416 96.402042 29.789348 92.696272 29.789348 C 91.098158 29.789348 89.492324 30.430138 87.88263 31.711717 C 86.269076 32.997156 84.914153 34.714935 83.814003 36.861194 C 82.713852 39.011313 82.161847 41.373742 82.161847 43.956201 C 82.161847 44.438723 82.188868 44.82088 82.24291 45.094953 C 82.293093 45.357445 82.320114 45.488691 82.320114 45.488691 C 82.320114 45.488691 82.142546 45.554314 81.79127 45.6817 C 81.451574 45.812946 80.984492 45.878569 80.393885 45.878569 C 78.679966 45.878569 77.309603 45.380606 76.290516 44.388541 C 75.267569 43.392615 74.758026 42.060853 74.758026 40.397117 C 74.758026 37.884141 75.549362 35.513992 77.132035 33.286669 C 78.718568 31.059347 80.891848 29.252784 83.655735 27.86312 C 86.419623 26.461875 89.546367 25.759323 93.028247 25.759323 C 98.123682 25.759323 101.864194 27.048622 104.249784 29.631081 C 106.646954 32.198099 107.843609 35.386606 107.843609 39.200462 Z M 78.448356 88.850068 C 80.71428 88.850068 82.852818 87.954507 84.856251 86.159524 C 86.871263 84.364541 88.511839 81.975091 89.766397 78.987314 C 91.024815 76.014977 91.654024 72.784008 91.654024 69.302128 L 91.654024 68.730821 C 85.809715 71.625955 81.710206 74.258596 79.355497 76.628745 C 77.795986 78.122634 76.603191 79.577921 75.777113 80.990746 C 74.939454 82.419012 74.518695 83.835697 74.518695 85.236941 C 74.518695 87.645692 75.831155 88.850068 78.448356 88.850068 Z M 177.280486 59.007034 C 178.890181 59.007034 180.441972 58.377825 181.935861 57.119407 C 183.44133 55.849408 184.707468 54.13935 185.726555 51.989231 C 186.26698 51.989231 186.676159 52.155218 186.965672 52.483333 C 187.266766 52.796008 187.367131 53.332572 187.259046 54.093027 C 187.104639 55.115974 186.618256 56.293329 185.807619 57.62895 C 185.008562 58.964572 183.974035 60.280892 182.704036 61.577912 C 181.445618 62.863351 179.998052 63.9249 178.361336 64.762559 C 176.736201 65.588637 174.97982 66.001676 173.092194 66.001676 C 170.092835 66.001676 167.722686 65.075233 165.981746 63.230068 C 164.240806 61.369462 163.368406 58.941411 163.368406 55.938192 C 163.368406 54.865063 163.511232 53.417496 163.800746 51.599353 C 164.10184 49.777349 164.356611 48.167655 164.565061 46.76255 L 166.097552 37.903442 C 166.414086 36.031256 166.394785 34.718795 166.039649 33.973781 C 165.699953 33.213326 165.078465 32.835029 164.175183 32.835029 C 163.152236 32.835029 162.032784 33.506699 160.812968 34.857762 C 159.608593 36.193383 158.404217 38.046268 157.199842 40.416418 C 155.991606 42.774986 154.879875 45.500272 153.856928 48.592274 C 152.837841 51.668836 152.004043 54.922966 151.363253 58.358524 C 150.942494 60.8715 150.826688 62.654902 151.008117 63.70101 C 151.193405 64.750978 151.286049 65.272102 151.286049 65.272102 C 151.286049 65.272102 150.961795 65.395628 150.321005 65.646539 C 149.680216 65.88201 148.607086 66.001676 147.097757 66.001676 C 143.994174 66.001676 142.102687 65.372467 141.419435 64.114049 C 140.751624 62.84405 140.66284 60.813597 141.145363 58.022688 L 144.681285 37.903442 C 145.337516 34.521926 144.719887 32.835029 142.83612 32.835029 C 141.550681 32.835029 140.064513 33.919738 138.373755 36.096879 C 136.686857 38.270159 135.088744 41.277237 133.579414 45.114254 C 132.073945 48.951271 130.869569 53.367314 129.966288 58.358524 C 129.533948 60.8715 129.410422 62.654902 129.591851 63.70101 C 129.78872 64.750978 129.889084 65.272102 129.889084 65.272102 C 129.889084 65.272102 129.560969 65.395628 128.904739 65.646539 C 128.263949 65.88201 127.19468 66.001676 125.700791 66.001676 C 122.585628 66.001676 120.690281 65.372467 120.02247 64.114049 C 119.354659 62.84405 119.262015 60.813597 119.748397 58.022688 L 124.013894 33.402475 C 124.430793 30.889499 124.550458 29.106097 124.36517 28.059989 C 124.183742 27.01002 124.091097 26.488896 124.091097 26.488896 C 124.091097 26.488896 124.411492 26.369231 125.052282 26.13376 C 125.696931 25.882848 126.770061 25.759323 128.27553 25.759323 C 131.379113 25.759323 133.26674 26.376951 133.934551 27.608348 C 134.617802 28.839745 134.714306 30.881779 134.227924 33.73831 L 133.895949 35.664539 C 134.810811 34.155209 135.926402 32.65746 137.235002 31.163572 C 138.559043 29.658102 140.037492 28.380383 141.678067 27.330415 C 143.314782 26.284307 145.044142 25.759323 146.862286 25.759323 C 149.379122 25.759323 151.401855 26.500477 152.934345 27.978925 C 154.466836 29.445792 155.235011 31.495547 155.235011 34.132048 C 155.235011 34.39068 155.219571 34.672473 155.192549 34.973567 C 155.169388 35.274661 155.153948 35.583475 155.153948 35.90001 C 156.007047 34.340498 157.099477 32.788706 158.435099 31.240775 C 159.786161 29.681263 161.303211 28.380383 162.993969 27.330415 C 164.684726 26.284307 166.471989 25.759323 168.359616 25.759323 C 170.872591 25.759323 172.879884 26.512057 174.369912 28.021387 C 175.879242 29.511415 176.631977 31.522568 176.631977 34.050985 C 176.631977 34.904084 176.566354 35.892289 176.435108 37.019461 C 176.303861 38.146633 176.134014 39.331708 175.921704 40.574685 L 173.980034 51.912027 C 173.180978 56.640745 174.281128 59.007034 177.280486 59.007034 Z M 191.358555 48.29504 L 193.933293 33.402475 C 194.365633 30.835456 194.485299 29.040474 194.28843 28.021387 C 194.103141 26.99844 194.014357 26.488896 194.014357 26.488896 C 194.014357 26.488896 194.334752 26.369231 194.975541 26.13376 C 195.616331 25.882848 196.69332 25.759323 198.19879 25.759323 C 201.313953 25.759323 203.2093 26.376951 203.877111 27.608348 C 204.544922 28.839745 204.637566 30.881779 204.151184 33.73831 L 201.008999 51.912027 C 200.642282 54.336219 200.765808 56.123481 201.379576 57.277674 C 201.997205 58.428007 203.031732 59.007034 204.487019 59.007034 C 205.872823 59.007034 207.374432 58.377825 208.984126 57.119407 C 210.597681 55.849408 211.914001 54.13935 212.933088 51.989231 C 213.469653 51.989231 213.882692 52.155218 214.172205 52.483333 C 214.473299 52.796008 214.565943 53.332572 214.446278 54.093027 C 214.237828 55.166157 213.739865 56.378253 212.952389 57.729315 C 212.180353 59.064936 211.153546 60.361956 209.868107 61.616514 C 208.586528 62.874932 207.11194 63.9249 205.448203 64.762559 C 203.784467 65.588637 201.981764 66.001676 200.043955 66.001676 C 197.253046 66.001676 194.987122 65.129276 193.246182 63.388335 C 191.505241 61.643535 190.632841 59.161441 190.632841 55.938192 C 190.632841 55.139136 190.686884 54.073726 190.791109 52.738105 C 190.895333 51.387043 191.084482 49.908595 191.358555 48.29504 Z M 196.743503 13.696267 C 196.743503 12.032531 197.307089 10.650587 198.43426 9.550436 C 199.561432 8.450286 200.877753 7.89828 202.383222 7.89828 C 203.942734 7.89828 205.15869 8.384663 206.038811 9.353567 C 206.926652 10.310891 207.374432 11.515267 207.374432 12.970554 C 207.374432 14.356358 206.849448 15.626356 205.80334 16.780549 C 204.753371 17.934742 203.344407 18.509909 201.576445 18.509909 C 200.136599 18.509909 198.970825 18.058268 198.079124 17.154987 C 197.187423 16.236264 196.743503 15.085931 196.743503 13.696267 Z M 232.233977 39.926175 L 239.170716 43.543162 C 242.119892 45.048631 244.181227 46.658325 245.358581 48.376104 C 246.539796 50.090023 247.130403 52.023972 247.130403 54.170231 C 247.130403 56.266307 246.512774 58.211837 245.281378 60.00682 C 244.049981 61.801802 242.185515 63.249369 239.68026 64.34952 C 237.194305 65.44967 233.990358 66.001676 230.072277 66.001676 C 226.640579 66.001676 223.853531 65.503713 221.703412 64.507787 C 219.557153 63.511861 217.97062 62.280464 216.947673 60.813597 C 215.928586 59.331289 215.415182 57.899163 215.415182 56.509499 C 215.415182 54.949987 215.951747 53.757192 217.028737 52.934974 C 218.101866 52.097315 219.340983 51.676556 220.742228 51.676556 C 222.128031 51.676556 223.120097 51.865705 223.706844 52.247862 C 224.297451 52.614579 224.590825 52.796008 224.590825 52.796008 C 224.590825 52.796008 224.525202 53.000597 224.393956 53.405916 C 224.26271 53.811234 224.200947 54.386401 224.200947 55.135275 C 224.200947 57.127127 224.737512 58.748402 225.810641 60.00682 C 226.88377 61.265238 228.574528 61.921468 230.879054 61.97165 C 233.183581 61.97165 234.885919 61.465967 235.98993 60.45846 C 237.09008 59.435513 237.638226 58.250439 237.638226 56.903237 C 237.638226 55.934332 237.344852 55.034911 236.754245 54.212693 C 236.163638 53.371174 235.144551 52.579838 233.689264 51.834823 L 225.810641 47.646531 C 223.872832 46.573401 222.212955 45.303403 220.838732 43.836535 C 219.476089 42.358087 218.796698 40.273591 218.796698 37.586907 C 218.796698 34.313477 220.217244 31.522568 223.058334 29.218042 C 225.903285 26.913516 230.172642 25.759323 235.870264 25.759323 C 239.197737 25.759323 241.942324 26.257286 244.104023 27.253212 C 246.277303 28.249137 247.886998 29.488254 248.936966 30.966702 C 249.983074 32.43357 250.508058 33.861836 250.508058 35.2515 C 250.508058 36.756969 249.971494 37.942044 248.898364 38.806724 C 247.821375 39.659823 246.589978 40.084442 245.204174 40.084442 C 243.853112 40.084442 242.872627 39.899154 242.254998 39.532437 C 241.64123 39.154139 241.332416 38.964991 241.332416 38.964991 C 241.332416 38.964991 241.398039 38.748821 241.529285 38.316481 C 241.672111 37.884141 241.745455 37.320555 241.745455 36.625723 C 241.745455 34.753537 241.162568 33.147703 239.996794 31.812081 C 238.842601 30.461019 237.140263 29.789348 234.885919 29.789348 C 232.685618 29.789348 231.037322 30.287311 229.937171 31.279377 C 228.848601 32.263722 228.304316 33.456517 228.304316 34.857762 C 228.304316 36.035116 228.624711 37.00402 229.26936 37.764476 C 229.91015 38.51335 230.898355 39.231343 232.233977 39.926175 Z M 232.233977 39.926175 " stroke="#09ad55" stroke-width="12.173477" stroke-opacity="1" stroke-miterlimit="4"/></g><g fill="#ffffff" fill-opacity="1"><g transform="translate(113.115342, 85.174086)"><g><path d="M 22.3125 -10.1875 C 22.3125 -10.5625 22.3125 -10.976562 22.3125 -11.4375 C 22.3125 -11.90625 22.335938 -12.410156 22.390625 -12.953125 C 21.203125 -10.617188 19.984375 -8.609375 18.734375 -6.921875 C 17.046875 -4.585938 15.265625 -2.847656 13.390625 -1.703125 C 11.523438 -0.566406 9.476562 0 7.25 0 C 4.53125 0 2.367188 -0.867188 0.765625 -2.609375 C -0.828125 -4.347656 -1.625 -6.628906 -1.625 -9.453125 C -1.625 -10.972656 -1.554688 -12.488281 -1.421875 -14 C -1.285156 -15.519531 -1.03125 -17.34375 -0.65625 -19.46875 L 1.703125 -32.984375 C 2.140625 -35.535156 2.265625 -37.335938 2.078125 -38.390625 C 1.890625 -39.453125 1.796875 -39.984375 1.796875 -39.984375 C 1.796875 -39.984375 2.117188 -40.101562 2.765625 -40.34375 C 3.421875 -40.59375 4.507812 -40.71875 6.03125 -40.71875 C 9.175781 -40.71875 11.085938 -40.09375 11.765625 -38.84375 C 12.441406 -37.59375 12.535156 -35.53125 12.046875 -32.65625 L 8.796875 -13.84375 C 8.410156 -11.507812 8.460938 -9.796875 8.953125 -8.703125 C 9.441406 -7.617188 10.285156 -7.078125 11.484375 -7.078125 C 12.398438 -7.078125 13.375 -7.578125 14.40625 -8.578125 C 15.445312 -9.585938 16.484375 -10.910156 17.515625 -12.546875 C 18.703125 -14.335938 19.835938 -16.425781 20.921875 -18.8125 C 22.015625 -21.195312 22.992188 -23.691406 23.859375 -26.296875 C 24.734375 -28.910156 25.359375 -31.410156 25.734375 -33.796875 C 26.109375 -36.023438 26.203125 -37.613281 26.015625 -38.5625 C 25.828125 -39.507812 25.734375 -39.984375 25.734375 -39.984375 C 25.734375 -39.984375 26.054688 -40.101562 26.703125 -40.34375 C 27.359375 -40.59375 28.445312 -40.71875 29.96875 -40.71875 C 33.113281 -40.71875 35.023438 -40.09375 35.703125 -38.84375 C 36.390625 -37.59375 36.488281 -35.53125 36 -32.65625 L 32.8125 -14.25 C 32.4375 -11.8125 32.5625 -10.003906 33.1875 -8.828125 C 33.8125 -7.660156 34.859375 -7.078125 36.328125 -7.078125 C 37.734375 -7.078125 39.25 -7.710938 40.875 -8.984375 C 42.507812 -10.265625 43.84375 -11.992188 44.875 -14.171875 C 45.414062 -14.171875 45.832031 -14.003906 46.125 -13.671875 C 46.425781 -13.347656 46.523438 -12.804688 46.421875 -12.046875 C 46.203125 -10.960938 45.695312 -9.742188 44.90625 -8.390625 C 44.125 -7.035156 43.082031 -5.71875 41.78125 -4.4375 C 40.476562 -3.164062 38.984375 -2.109375 37.296875 -1.265625 C 35.617188 -0.421875 33.800781 0 31.84375 0 C 29.019531 0 26.722656 -0.878906 24.953125 -2.640625 C 23.191406 -4.410156 22.3125 -6.925781 22.3125 -10.1875 Z M 22.3125 -10.1875 "/></g></g></g><g fill="#ffffff" fill-opacity="1"><g transform="translate(164.579746, 85.174086)"><g><path d="M -0.890625 -17.921875 L 1.703125 -32.984375 C 2.140625 -35.585938 2.265625 -37.40625 2.078125 -38.4375 C 1.890625 -39.46875 1.796875 -39.984375 1.796875 -39.984375 C 1.796875 -39.984375 2.117188 -40.101562 2.765625 -40.34375 C 3.421875 -40.59375 4.507812 -40.71875 6.03125 -40.71875 C 9.175781 -40.71875 11.085938 -40.09375 11.765625 -38.84375 C 12.441406 -37.59375 12.535156 -35.53125 12.046875 -32.65625 L 8.875 -14.25 C 8.5 -11.8125 8.625 -10.003906 9.25 -8.828125 C 9.875 -7.660156 10.914062 -7.078125 12.375 -7.078125 C 13.789062 -7.078125 15.3125 -7.710938 16.9375 -8.984375 C 18.5625 -10.265625 19.890625 -11.992188 20.921875 -14.171875 C 21.472656 -14.171875 21.894531 -14.003906 22.1875 -13.671875 C 22.488281 -13.347656 22.585938 -12.804688 22.484375 -12.046875 C 22.265625 -10.960938 21.757812 -9.742188 20.96875 -8.390625 C 20.1875 -7.035156 19.140625 -5.71875 17.828125 -4.4375 C 16.523438 -3.164062 15.03125 -2.109375 13.34375 -1.265625 C 11.664062 -0.421875 9.851562 0 7.90625 0 C 5.082031 0 2.785156 -0.878906 1.015625 -2.640625 C -0.742188 -4.410156 -1.625 -6.925781 -1.625 -10.1875 C -1.625 -11 -1.566406 -12.082031 -1.453125 -13.4375 C -1.347656 -14.789062 -1.160156 -16.285156 -0.890625 -17.921875 Z M 4.5625 -52.9375 C 4.5625 -54.613281 5.128906 -56.007812 6.265625 -57.125 C 7.410156 -58.238281 8.742188 -58.796875 10.265625 -58.796875 C 11.835938 -58.796875 13.070312 -58.304688 13.96875 -57.328125 C 14.863281 -56.347656 15.3125 -55.128906 15.3125 -53.671875 C 15.3125 -52.253906 14.78125 -50.960938 13.71875 -49.796875 C 12.664062 -48.628906 11.242188 -48.046875 9.453125 -48.046875 C 7.984375 -48.046875 6.800781 -48.503906 5.90625 -49.421875 C 5.007812 -50.347656 4.5625 -51.519531 4.5625 -52.9375 Z M 4.5625 -52.9375 "/></g></g></g><g fill="#ffffff" fill-opacity="1"><g transform="translate(192.104012, 85.174086)"><g><path d="M 30.125 -27.125 C 30.125 -23.96875 29.445312 -21.019531 28.09375 -18.28125 C 26.738281 -15.539062 24.894531 -13.140625 22.5625 -11.078125 C 20.71875 -9.390625 18.707031 -8.03125 16.53125 -7 C 16.96875 -6.78125 17.457031 -6.492188 18 -6.140625 C 18.539062 -5.796875 19.164062 -5.269531 19.875 -4.5625 C 22.257812 -5.476562 24.617188 -6.503906 26.953125 -7.640625 C 29.285156 -8.785156 31.390625 -9.941406 33.265625 -11.109375 C 35.140625 -12.273438 36.59375 -13.296875 37.625 -14.171875 C 38.164062 -14.171875 38.582031 -14.003906 38.875 -13.671875 C 39.175781 -13.347656 39.273438 -12.890625 39.171875 -12.296875 C 39.003906 -11.585938 38.109375 -10.609375 36.484375 -9.359375 C 35.066406 -8.273438 33.097656 -7.015625 30.578125 -5.578125 C 28.054688 -4.140625 25.300781 -2.660156 22.3125 -1.140625 C 23.507812 1.085938 24.109375 3.691406 24.109375 6.671875 C 24.109375 9.441406 23.5625 12.128906 22.46875 14.734375 C 21.382812 17.347656 19.851562 19.6875 17.875 21.75 C 15.894531 23.8125 13.570312 25.453125 10.90625 26.671875 C 8.25 27.890625 5.347656 28.5 2.203125 28.5 C -1.328125 28.5 -3.929688 27.722656 -5.609375 26.171875 C -7.296875 24.628906 -8.140625 22.554688 -8.140625 19.953125 C -8.140625 17.722656 -7.53125 15.507812 -6.3125 13.3125 C -5.09375 11.113281 -3.476562 9.175781 -1.46875 7.5 C 0.488281 5.8125 2.660156 4.25 5.046875 2.8125 C 7.429688 1.375 10.253906 -0.128906 13.515625 -1.703125 C 13.410156 -2.578125 13.234375 -3.3125 12.984375 -3.90625 C 12.742188 -4.507812 12.515625 -4.972656 12.296875 -5.296875 C 10.671875 -4.859375 9.234375 -4.640625 7.984375 -4.640625 C 6.953125 -4.640625 6.164062 -4.867188 5.625 -5.328125 C 5.082031 -5.796875 4.8125 -6.378906 4.8125 -7.078125 C 7.738281 -8.390625 10.378906 -10.289062 12.734375 -12.78125 C 15.097656 -15.28125 16.972656 -18.117188 18.359375 -21.296875 C 19.742188 -24.472656 20.4375 -27.660156 20.4375 -30.859375 C 20.4375 -34.710938 18.566406 -36.640625 14.828125 -36.640625 C 13.191406 -36.640625 11.5625 -35.988281 9.9375 -34.6875 C 8.3125 -33.382812 6.941406 -31.644531 5.828125 -29.46875 C 4.710938 -27.300781 4.15625 -24.914062 4.15625 -22.3125 C 4.15625 -21.820312 4.179688 -21.441406 4.234375 -21.171875 C 4.285156 -20.898438 4.3125 -20.765625 4.3125 -20.765625 C 4.3125 -20.765625 4.132812 -20.695312 3.78125 -20.5625 C 3.425781 -20.425781 2.953125 -20.359375 2.359375 -20.359375 C 0.617188 -20.359375 -0.765625 -20.859375 -1.796875 -21.859375 C -2.828125 -22.867188 -3.34375 -24.210938 -3.34375 -25.890625 C -3.34375 -28.441406 -2.539062 -30.84375 -0.9375 -33.09375 C 0.664062 -35.351562 2.863281 -37.1875 5.65625 -38.59375 C 8.457031 -40.007812 11.617188 -40.71875 15.140625 -40.71875 C 20.304688 -40.71875 24.09375 -39.414062 26.5 -36.8125 C 28.914062 -34.207031 30.125 -30.976562 30.125 -27.125 Z M 0.40625 23.125 C 2.6875 23.125 4.84375 22.210938 6.875 20.390625 C 8.914062 18.578125 10.570312 16.160156 11.84375 13.140625 C 13.125 10.128906 13.765625 6.863281 13.765625 3.34375 L 13.765625 2.765625 C 7.847656 5.703125 3.691406 8.363281 1.296875 10.75 C -0.273438 12.269531 -1.476562 13.75 -2.3125 15.1875 C -3.15625 16.625 -3.578125 18.050781 -3.578125 19.46875 C -3.578125 21.90625 -2.25 23.125 0.40625 23.125 Z M 0.40625 23.125 "/></g></g></g><g fill="#ffffff" fill-opacity="1"><g transform="translate(236.321226, 85.174086)"><g><path d="M 56.1875 -7.078125 C 57.820312 -7.078125 59.398438 -7.710938 60.921875 -8.984375 C 62.441406 -10.265625 63.71875 -11.992188 64.75 -14.171875 C 65.289062 -14.171875 65.707031 -14.003906 66 -13.671875 C 66.300781 -13.347656 66.398438 -12.804688 66.296875 -12.046875 C 66.128906 -11.015625 65.640625 -9.820312 64.828125 -8.46875 C 64.015625 -7.113281 62.96875 -5.785156 61.6875 -4.484375 C 60.414062 -3.179688 58.953125 -2.109375 57.296875 -1.265625 C 55.640625 -0.421875 53.859375 0 51.953125 0 C 48.910156 0 46.507812 -0.9375 44.75 -2.8125 C 42.988281 -4.6875 42.109375 -7.144531 42.109375 -10.1875 C 42.109375 -11.269531 42.253906 -12.734375 42.546875 -14.578125 C 42.847656 -16.421875 43.109375 -18.050781 43.328125 -19.46875 L 44.875 -28.421875 C 45.195312 -30.316406 45.179688 -31.644531 44.828125 -32.40625 C 44.472656 -33.164062 43.835938 -33.546875 42.921875 -33.546875 C 41.890625 -33.546875 40.757812 -32.867188 39.53125 -31.515625 C 38.3125 -30.160156 37.09375 -28.285156 35.875 -25.890625 C 34.65625 -23.503906 33.53125 -20.75 32.5 -17.625 C 31.46875 -14.507812 30.625 -11.210938 29.96875 -7.734375 C 29.53125 -5.179688 29.40625 -3.375 29.59375 -2.3125 C 29.789062 -1.257812 29.890625 -0.734375 29.890625 -0.734375 C 29.890625 -0.734375 29.5625 -0.609375 28.90625 -0.359375 C 28.257812 -0.117188 27.175781 0 25.65625 0 C 22.5 0 20.582031 -0.632812 19.90625 -1.90625 C 19.226562 -3.1875 19.132812 -5.238281 19.625 -8.0625 L 23.203125 -28.421875 C 23.859375 -31.835938 23.238281 -33.546875 21.34375 -33.546875 C 20.03125 -33.546875 18.519531 -32.445312 16.8125 -30.25 C 15.101562 -28.050781 13.488281 -25.007812 11.96875 -21.125 C 10.445312 -17.25 9.226562 -12.785156 8.3125 -7.734375 C 7.875 -5.179688 7.75 -3.375 7.9375 -2.3125 C 8.125 -1.257812 8.21875 -0.734375 8.21875 -0.734375 C 8.21875 -0.734375 7.890625 -0.609375 7.234375 -0.359375 C 6.585938 -0.117188 5.503906 0 3.984375 0 C 0.835938 0 -1.070312 -0.632812 -1.75 -1.90625 C -2.425781 -3.1875 -2.519531 -5.238281 -2.03125 -8.0625 L 2.28125 -32.984375 C 2.71875 -35.535156 2.835938 -37.335938 2.640625 -38.390625 C 2.453125 -39.453125 2.359375 -39.984375 2.359375 -39.984375 C 2.359375 -39.984375 2.679688 -40.101562 3.328125 -40.34375 C 3.984375 -40.59375 5.070312 -40.71875 6.59375 -40.71875 C 9.738281 -40.71875 11.648438 -40.09375 12.328125 -38.84375 C 13.015625 -37.59375 13.113281 -35.53125 12.625 -32.65625 L 12.296875 -30.703125 C 13.222656 -32.222656 14.347656 -33.742188 15.671875 -35.265625 C 17.003906 -36.785156 18.5 -38.070312 20.15625 -39.125 C 21.8125 -40.1875 23.5625 -40.71875 25.40625 -40.71875 C 27.957031 -40.71875 30.003906 -39.96875 31.546875 -38.46875 C 33.097656 -36.976562 33.875 -34.90625 33.875 -32.25 C 33.875 -31.976562 33.859375 -31.691406 33.828125 -31.390625 C 33.804688 -31.097656 33.796875 -30.785156 33.796875 -30.453125 C 34.660156 -32.023438 35.769531 -33.597656 37.125 -35.171875 C 38.488281 -36.753906 40.023438 -38.070312 41.734375 -39.125 C 43.441406 -40.1875 45.25 -40.71875 47.15625 -40.71875 C 49.707031 -40.71875 51.742188 -39.957031 53.265625 -38.4375 C 54.785156 -36.914062 55.546875 -34.878906 55.546875 -32.328125 C 55.546875 -31.460938 55.476562 -30.457031 55.34375 -29.3125 C 55.207031 -28.175781 55.03125 -26.984375 54.8125 -25.734375 L 52.859375 -14.25 C 52.035156 -9.46875 53.144531 -7.078125 56.1875 -7.078125 Z M 56.1875 -7.078125 "/></g></g></g><g fill="#ffffff" fill-opacity="1"><g transform="translate(307.654324, 85.174086)"><g><path d="M -0.890625 -17.921875 L 1.703125 -32.984375 C 2.140625 -35.585938 2.265625 -37.40625 2.078125 -38.4375 C 1.890625 -39.46875 1.796875 -39.984375 1.796875 -39.984375 C 1.796875 -39.984375 2.117188 -40.101562 2.765625 -40.34375 C 3.421875 -40.59375 4.507812 -40.71875 6.03125 -40.71875 C 9.175781 -40.71875 11.085938 -40.09375 11.765625 -38.84375 C 12.441406 -37.59375 12.535156 -35.53125 12.046875 -32.65625 L 8.875 -14.25 C 8.5 -11.8125 8.625 -10.003906 9.25 -8.828125 C 9.875 -7.660156 10.914062 -7.078125 12.375 -7.078125 C 13.789062 -7.078125 15.3125 -7.710938 16.9375 -8.984375 C 18.5625 -10.265625 19.890625 -11.992188 20.921875 -14.171875 C 21.472656 -14.171875 21.894531 -14.003906 22.1875 -13.671875 C 22.488281 -13.347656 22.585938 -12.804688 22.484375 -12.046875 C 22.265625 -10.960938 21.757812 -9.742188 20.96875 -8.390625 C 20.1875 -7.035156 19.140625 -5.71875 17.828125 -4.4375 C 16.523438 -3.164062 15.03125 -2.109375 13.34375 -1.265625 C 11.664062 -0.421875 9.851562 0 7.90625 0 C 5.082031 0 2.785156 -0.878906 1.015625 -2.640625 C -0.742188 -4.410156 -1.625 -6.925781 -1.625 -10.1875 C -1.625 -11 -1.566406 -12.082031 -1.453125 -13.4375 C -1.347656 -14.789062 -1.160156 -16.285156 -0.890625 -17.921875 Z M 4.5625 -52.9375 C 4.5625 -54.613281 5.128906 -56.007812 6.265625 -57.125 C 7.410156 -58.238281 8.742188 -58.796875 10.265625 -58.796875 C 11.835938 -58.796875 13.070312 -58.304688 13.96875 -57.328125 C 14.863281 -56.347656 15.3125 -55.128906 15.3125 -53.671875 C 15.3125 -52.253906 14.78125 -50.960938 13.71875 -49.796875 C 12.664062 -48.628906 11.242188 -48.046875 9.453125 -48.046875 C 7.984375 -48.046875 6.800781 -48.503906 5.90625 -49.421875 C 5.007812 -50.347656 4.5625 -51.519531 4.5625 -52.9375 Z M 4.5625 -52.9375 "/></g></g></g><g fill="#ffffff" fill-opacity="1"><g transform="translate(335.17859, 85.174086)"><g><path d="M 12.953125 -26.390625 L 19.953125 -22.71875 C 22.941406 -21.195312 25.03125 -19.566406 26.21875 -17.828125 C 27.414062 -16.097656 28.015625 -14.144531 28.015625 -11.96875 C 28.015625 -9.851562 27.390625 -7.882812 26.140625 -6.0625 C 24.890625 -4.25 23 -2.785156 20.46875 -1.671875 C 17.945312 -0.554688 14.707031 0 10.75 0 C 7.269531 0 4.441406 -0.5 2.265625 -1.5 C 0.0976562 -2.507812 -1.5 -3.757812 -2.53125 -5.25 C -3.5625 -6.75 -4.078125 -8.203125 -4.078125 -9.609375 C -4.078125 -11.179688 -3.53125 -12.390625 -2.4375 -13.234375 C -1.351562 -14.078125 -0.109375 -14.5 1.296875 -14.5 C 2.710938 -14.5 3.71875 -14.304688 4.3125 -13.921875 C 4.914062 -13.546875 5.21875 -13.359375 5.21875 -13.359375 C 5.21875 -13.359375 5.148438 -13.15625 5.015625 -12.75 C 4.878906 -12.34375 4.8125 -11.757812 4.8125 -11 C 4.8125 -8.988281 5.351562 -7.34375 6.4375 -6.0625 C 7.519531 -4.789062 9.226562 -4.128906 11.5625 -4.078125 C 13.894531 -4.078125 15.617188 -4.59375 16.734375 -5.625 C 17.847656 -6.65625 18.40625 -7.847656 18.40625 -9.203125 C 18.40625 -10.179688 18.101562 -11.085938 17.5 -11.921875 C 16.90625 -12.765625 15.878906 -13.566406 14.421875 -14.328125 L 6.4375 -18.5625 C 4.476562 -19.65625 2.804688 -20.945312 1.421875 -22.4375 C 0.0351562 -23.925781 -0.65625 -26.03125 -0.65625 -28.75 C -0.65625 -32.0625 0.78125 -34.882812 3.65625 -37.21875 C 6.539062 -39.550781 10.859375 -40.71875 16.609375 -40.71875 C 19.972656 -40.71875 22.753906 -40.210938 24.953125 -39.203125 C 27.160156 -38.203125 28.789062 -36.953125 29.84375 -35.453125 C 30.90625 -33.960938 31.4375 -32.515625 31.4375 -31.109375 C 31.4375 -29.585938 30.890625 -28.390625 29.796875 -27.515625 C 28.710938 -26.648438 27.46875 -26.21875 26.0625 -26.21875 C 24.707031 -26.21875 23.71875 -26.40625 23.09375 -26.78125 C 22.46875 -27.164062 22.15625 -27.359375 22.15625 -27.359375 C 22.15625 -27.359375 22.222656 -27.578125 22.359375 -28.015625 C 22.492188 -28.453125 22.5625 -29.019531 22.5625 -29.71875 C 22.5625 -31.625 21.976562 -33.253906 20.8125 -34.609375 C 19.644531 -35.960938 17.921875 -36.640625 15.640625 -36.640625 C 13.410156 -36.640625 11.738281 -36.140625 10.625 -35.140625 C 9.507812 -34.140625 8.953125 -32.929688 8.953125 -31.515625 C 8.953125 -30.316406 9.273438 -29.335938 9.921875 -28.578125 C 10.578125 -27.816406 11.585938 -27.085938 12.953125 -26.390625 Z M 12.953125 -26.390625 "/></g></g></g><g clip-path="url(#26ee72c0ae)"><path fill="#09ad55" d="M 56.117188 1.761719 Z M 56.117188 1.761719 Z M 56.117188 4.972656 Z M 56.117188 4.972656 Z M 56.117188 4.972656 Z M 56.117188 4.972656 Z M 56.117188 4.972656 L 56.117188 66.820312 Z M 56.117188 1.761719 L 2.15625 17.546875 C 2.128906 39.3125 2.804688 55.46875 4.1875 66.015625 C 4.707031 70.273438 5.390625 74.347656 6.238281 78.242188 L 7.664062 83.914062 C 8.707031 87.59375 9.972656 91.027344 11.464844 94.207031 C 12.972656 97.378906 14.703125 100.296875 16.660156 102.96875 C 17.417969 104.546875 20.753906 108.109375 26.671875 113.65625 C 32.78125 118.984375 42.597656 125.058594 56.117188 131.875 L 56.117188 4.972656 L 56.117188 128.667969 C 43.265625 122.1875 33.933594 116.414062 28.125 111.34375 C 22.5 106.074219 19.324219 102.6875 18.605469 101.1875 C 16.746094 98.644531 15.101562 95.871094 13.667969 92.859375 C 12.25 89.832031 11.046875 86.570312 10.054688 83.070312 L 8.699219 77.679688 C 7.894531 73.976562 7.246094 70.101562 6.75 66.058594 C 5.433594 56.027344 4.792969 40.667969 4.820312 19.976562 L 56.117188 4.972656 Z M 56.117188 1.761719 L 56.117188 4.972656 L 107.417969 19.976562 C 107.445312 40.667969 106.800781 56.027344 105.488281 66.058594 C 104.992188 70.101562 104.34375 73.976562 103.535156 77.679688 L 102.179688 83.070312 C 101.191406 86.570312 99.984375 89.832031 98.566406 92.859375 C 97.136719 95.871094 95.492188 98.644531 93.632812 101.1875 C 92.910156 102.6875 89.738281 106.074219 84.113281 111.34375 C 78.304688 116.414062 68.972656 122.1875 56.117188 128.667969 L 56.117188 66.820312 L 56.117188 131.875 C 69.640625 125.058594 79.453125 118.984375 85.566406 113.65625 C 91.484375 108.109375 94.820312 104.546875 95.578125 102.96875 C 97.535156 100.296875 99.265625 97.378906 100.769531 94.207031 C 102.261719 91.027344 103.53125 87.59375 104.570312 83.914062 L 105.996094 78.242188 C 106.84375 74.347656 107.527344 70.273438 108.050781 66.015625 C 109.433594 55.46875 110.109375 39.3125 110.078125 17.546875 Z M 56.117188 1.761719 " fill-opacity="1" fill-rule="nonzero"/></g><path fill="#09ad55" d="M 56.117188 8.175781 Z M 56.117188 8.175781 Z M 56.117188 8.175781 L 7.476562 22.402344 C 7.449219 42.023438 8.058594 56.589844 9.308594 66.097656 C 9.777344 69.933594 10.394531 73.605469 11.15625 77.117188 L 12.441406 82.230469 C 13.382812 85.546875 14.523438 88.640625 15.867188 91.507812 C 17.226562 94.363281 18.785156 96.996094 20.546875 99.40625 C 21.230469 100.828125 24.242188 104.039062 29.574219 109.039062 C 35.082031 113.84375 43.929688 119.320312 56.117188 125.460938 Z M 56.117188 8.175781 L 56.117188 125.460938 C 68.304688 119.320312 77.152344 113.84375 82.664062 109.039062 C 87.996094 104.039062 91.003906 100.828125 91.6875 99.40625 C 93.453125 96.996094 95.011719 94.363281 96.367188 91.507812 C 97.714844 88.640625 98.855469 85.546875 99.796875 82.230469 L 101.078125 77.117188 C 101.84375 73.605469 102.460938 69.933594 102.929688 66.097656 C 104.175781 56.589844 104.785156 42.023438 104.757812 22.402344 Z M 56.117188 8.175781 " fill-opacity="1" fill-rule="nonzero"/><g fill="#ffffff" fill-opacity="1"><g transform="translate(14.021207, 90.498804)"><g><path d="M 61.46875 6.3125 C 56.65625 6.3125 53.546875 3.859375 51.5625 -0.1875 C 65.890625 -3.765625 75.59375 -14.796875 75.59375 -33 C 75.59375 -55.421875 60.796875 -67.109375 40.625 -67.109375 C 20.359375 -67.109375 5.5625 -55.421875 5.5625 -33 C 5.5625 -10.5625 20.359375 1.125 40.53125 1.125 C 42.421875 11.3125 47.421875 17.90625 57.96875 17.90625 C 68.53125 17.90625 74.65625 10.46875 74.65625 -4.140625 L 74 -4.140625 C 71.453125 3.953125 66.640625 6.3125 61.46875 6.3125 Z M 40.625 -62.875 C 52.125 -62.875 59.203125 -52.6875 59.203125 -33 C 59.203125 -19.046875 55.71875 -9.890625 49.578125 -5.75 C 49.296875 -6.875 49.015625 -8.109375 48.828125 -9.328125 C 46.75 -22.625 43.078125 -28.65625 34.78125 -28.65625 C 29.96875 -28.65625 25.921875 -25.921875 23.75 -18.46875 C 22.625 -22.53125 22.0625 -27.34375 22.0625 -33 C 22.0625 -52.6875 29.03125 -62.875 40.625 -62.875 Z M 25.734375 -13.015625 C 26.671875 -19.796875 29.6875 -24.125 33.5625 -24.125 C 37.703125 -24.125 39.21875 -19.703125 39.59375 -8.578125 C 39.6875 -6.6875 39.78125 -4.90625 39.96875 -3.109375 C 33.65625 -3.390625 28.75 -6.6875 25.734375 -13.015625 Z M 25.734375 -13.015625 "/></g></g></g></svg>