<svg xmlns="http://www.w3.org/2000/svg" xmlns:xlink="http://www.w3.org/1999/xlink" width="500" zoomAndPan="magnify" viewBox="0 0 375 135.000003" height="180" preserveAspectRatio="xMidYMid meet" version="1.0"><defs><g/><clipPath id="ad157cdc1c"><path d="M 41 0 L 373.621094 0 L 373.621094 134.007812 L 41 134.007812 Z M 41 0 " clip-rule="nonzero"/></clipPath><clipPath id="232fe297fd"><path d="M 2.125 2.332031 L 110.492188 2.332031 L 110.492188 132.832031 L 2.125 132.832031 Z M 2.125 2.332031 " clip-rule="nonzero"/></clipPath></defs><g clip-path="url(#ad157cdc1c)"><path stroke-linecap="butt" transform="matrix(1.012195, 0, 0, 1.012195, 113.143797, 18.958319)" fill="none" stroke-linejoin="miter" d="M 22.044409 55.94152 C 22.044409 55.559461 22.044409 55.146528 22.044409 54.702721 C 22.044409 54.243478 22.071423 53.745642 22.125451 53.209215 C 20.94454 55.513151 19.740473 57.500632 18.509392 59.163943 C 16.846082 61.467878 15.082433 63.185217 13.222304 64.3121 C 11.377612 65.435124 9.359257 65.998565 7.171097 65.998565 C 4.485102 65.998565 2.350971 65.141825 0.764845 63.424486 C -0.817423 61.711007 -1.612415 59.457241 -1.612415 56.667048 C -1.612415 55.161964 -1.539091 53.66074 -1.396301 52.167234 C -1.265088 50.662151 -1.014241 48.85991 -0.647618 46.764371 L 1.69105 33.403861 C 2.123279 30.88767 2.239054 29.108585 2.042236 28.058885 C 1.860854 27.009186 1.768233 26.488196 1.768233 26.488196 C 1.768233 26.488196 2.088546 26.368561 2.733031 26.13315 C 3.373656 25.886162 4.44651 25.758809 5.951594 25.758809 C 9.069818 25.758809 10.964679 26.376279 11.632319 27.60736 C 12.299958 28.838441 12.392579 30.879952 11.906321 33.735751 L 8.683899 52.325461 C 8.317276 54.629396 8.371305 56.319721 8.842126 57.392575 C 9.328383 58.469289 10.165827 59.005716 11.358316 59.005716 C 12.261366 59.005716 13.222304 58.507881 14.244989 57.51221 C 15.267674 56.516539 16.290359 55.212134 17.309185 53.602852 C 18.490096 51.835344 19.616979 49.770678 20.689833 47.412714 C 21.762688 45.05475 22.727485 42.58487 23.576506 40.006932 C 24.440964 37.425135 25.058435 34.955255 25.425057 32.597291 C 25.803258 30.397553 25.895878 28.830723 25.69906 27.900659 C 25.517678 26.959017 25.425057 26.488196 25.425057 26.488196 C 25.425057 26.488196 25.74537 26.368561 26.385995 26.13315 C 27.042057 25.886162 28.118771 25.758809 29.608417 25.758809 C 32.726642 25.758809 34.621503 26.376279 35.289143 27.60736 C 35.956782 28.838441 36.049403 30.879952 35.563145 33.735751 L 32.441062 51.912528 C 32.059002 54.336098 32.178637 56.122902 32.792248 57.2768 C 33.409718 58.430697 34.44398 59.005716 35.898894 59.005716 C 37.284343 59.005716 38.785567 58.376668 40.398708 57.118573 C 42.007989 55.8489 43.323972 54.13928 44.346657 51.989712 C 44.883085 51.989712 45.296018 52.155657 45.585457 52.483688 C 45.886473 52.796282 45.982953 53.332709 45.878755 54.092969 C 45.654922 55.165824 45.157087 56.377609 44.385249 57.728325 C 43.613412 59.063604 42.579149 60.360291 41.282462 61.618386 C 39.997352 62.876482 38.523142 63.922322 36.859832 64.763625 C 35.196522 65.585632 33.402 65.998565 31.476265 65.998565 C 28.686071 65.998565 26.41301 65.130248 24.657079 63.385895 C 22.916585 61.645401 22.044409 59.163943 22.044409 55.94152 Z M 49.973354 48.296469 L 52.547432 33.403861 C 52.979661 30.837501 53.095437 29.042978 52.902478 28.020293 C 52.717237 26.997609 52.624616 26.488196 52.624616 26.488196 C 52.624616 26.488196 52.944929 26.368561 53.589413 26.13315 C 54.230038 25.886162 55.302893 25.758809 56.811835 25.758809 C 59.93006 25.758809 61.821062 26.376279 62.488701 27.60736 C 63.156341 28.838441 63.248961 30.879952 62.762704 33.735751 L 59.621324 51.912528 C 59.254702 54.336098 59.378196 56.122902 59.995666 57.2768 C 60.609277 58.430697 61.643539 59.005716 63.098453 59.005716 C 64.487761 59.005716 65.985126 58.376668 67.598267 57.118573 C 69.207548 55.8489 70.52739 54.13928 71.546216 51.989712 C 72.082643 51.989712 72.495576 52.155657 72.785016 52.483688 C 73.086032 52.796282 73.178653 53.332709 73.059018 54.092969 C 72.850622 55.165824 72.352786 56.377609 71.565512 57.728325 C 70.793674 59.063604 69.76713 60.360291 68.482021 61.618386 C 67.196911 62.876482 65.72656 63.922322 64.059391 64.763625 C 62.396081 65.585632 60.597699 65.998565 58.656527 65.998565 C 55.866334 65.998565 53.600991 65.130248 51.860497 63.385895 C 50.116144 61.645401 49.247826 59.163943 49.247826 55.94152 C 49.247826 55.142668 49.297996 54.073673 49.402194 52.738394 C 49.506392 51.387678 49.699351 49.909609 49.973354 48.296469 Z M 55.356921 13.694987 C 55.356921 12.031677 55.920363 10.650087 57.047246 9.550219 C 58.174129 8.45035 59.490112 7.898486 60.995195 7.898486 C 62.554308 7.898486 63.773811 8.384744 64.649847 9.3534 C 65.541319 10.310479 65.985126 11.514545 65.985126 12.969459 C 65.985126 14.358767 65.464135 15.62844 64.414436 16.782337 C 63.368596 17.932375 61.959993 18.511254 60.188625 18.511254 C 58.749148 18.511254 57.583673 18.059729 56.692201 17.152819 C 55.800728 16.238192 55.356921 15.084294 55.356921 13.694987 Z M 107.845741 39.200362 C 107.845741 42.318586 107.170383 45.232273 105.819667 47.941423 C 104.484388 50.642855 102.662851 53.012397 100.358916 55.053907 C 98.525801 56.721076 96.53446 58.060215 94.384892 59.0829 C 94.817121 59.295155 95.303379 59.576876 95.839806 59.928062 C 96.376233 60.26767 96.989844 60.79252 97.684498 61.498751 C 100.057899 60.584124 102.396567 59.561439 104.700502 58.434556 C 107.004438 57.307673 109.080681 56.169213 110.929232 55.015315 C 112.789361 53.865277 114.224979 52.85417 115.232227 51.989712 C 115.768654 51.989712 116.181587 52.155657 116.471026 52.483688 C 116.772043 52.796282 116.868523 53.255525 116.764325 53.857559 C 116.606098 54.552213 115.722344 55.513151 114.113062 56.744232 C 112.723755 57.820945 110.778724 59.071322 108.27797 60.499222 C 105.788793 61.911685 103.064207 63.374317 100.104209 64.8794 C 101.281262 67.079138 101.871717 69.653216 101.871717 72.601636 C 101.871717 75.337801 101.33529 77.992922 100.258577 80.559282 C 99.1973 83.141079 97.684498 85.445015 95.720171 87.474948 C 93.767422 89.520317 91.475064 91.145036 88.843098 92.349102 C 86.211131 93.568606 83.343755 94.174498 80.237108 94.174498 C 76.740683 94.174498 74.158887 93.410379 72.495576 91.878281 C 70.832266 90.346184 70.002541 88.293095 70.002541 85.726735 C 70.002541 83.526998 70.608433 81.338838 71.827937 79.166115 C 73.032004 76.989533 74.625848 75.071517 76.601753 73.408206 C 78.542924 71.744896 80.688633 70.197362 83.046597 68.769462 C 85.404561 67.356999 88.194754 65.867353 91.417176 64.3121 C 91.312978 63.443782 91.135456 62.718255 90.888468 62.127799 C 90.653057 61.541203 90.421506 61.089678 90.201532 60.773224 C 88.599969 61.205453 87.179788 61.421568 85.937129 61.421568 C 84.926022 61.421568 84.154184 61.193876 83.617757 60.734632 C 83.08133 60.275389 82.811187 59.70037 82.811187 59.005716 C 85.705578 57.709029 88.318248 55.829604 90.653057 53.367442 C 92.984007 50.90528 94.828699 48.09965 96.190992 44.958271 C 97.568722 41.813032 98.255658 38.663935 98.255658 35.507119 C 98.255658 31.694241 96.403248 29.787802 92.694568 29.787802 C 91.096864 29.787802 89.491441 30.428427 87.88216 31.713537 C 86.269019 32.998646 84.914444 34.712126 83.814576 36.861694 C 82.714707 39.011262 82.162843 41.373085 82.162843 43.954882 C 82.162843 44.43728 82.189857 44.81934 82.243886 45.093342 C 82.294055 45.355767 82.32107 45.486979 82.32107 45.486979 C 82.32107 45.486979 82.143547 45.552586 81.788502 45.683798 C 81.448893 45.81501 80.985791 45.880617 80.395335 45.880617 C 78.677996 45.880617 77.311843 45.382781 76.289158 44.387111 C 75.266474 43.39144 74.757061 42.06002 74.757061 40.39671 C 74.757061 37.884379 75.548194 35.510978 77.134321 33.284226 C 78.720447 31.057475 80.89317 29.251375 83.656349 27.862067 C 86.419528 26.461181 89.54547 25.758809 93.030317 25.758809 C 98.124446 25.758809 101.863999 27.051637 104.248977 29.629575 C 106.645533 32.199794 107.845741 35.387484 107.845741 39.200362 Z M 78.450304 88.852678 C 80.715647 88.852678 82.849778 87.953487 84.856556 86.158964 C 86.871053 84.364442 88.511208 81.975604 89.769303 78.988593 C 91.023539 76.013158 91.652587 72.786877 91.652587 69.30203 L 91.652587 68.73087 C 85.809776 71.625261 81.711318 74.257228 79.353354 76.630629 C 77.794242 78.124134 76.601753 79.575189 75.779746 80.991511 C 74.938443 82.419411 74.52165 83.835733 74.52165 85.236618 C 74.52165 87.644752 75.829915 88.852678 78.450304 88.852678 Z M 177.280256 59.005716 C 178.889537 59.005716 180.440931 58.376668 181.934437 57.118573 C 183.443379 55.8489 184.705334 54.13928 185.728019 51.989712 C 186.264446 51.989712 186.677379 52.155657 186.966818 52.483688 C 187.267835 52.796282 187.364314 53.332709 187.260116 54.092969 C 187.10189 55.115654 186.619491 56.292707 185.805202 57.627986 C 185.00635 58.967124 183.972088 60.283107 182.702415 61.579794 C 181.44432 62.861045 179.997124 63.922322 178.360828 64.763625 C 176.73611 65.585632 174.980179 65.998565 173.093036 65.998565 C 170.094447 65.998565 167.724906 65.076219 165.980552 63.227668 C 164.240059 61.371398 163.367882 58.94011 163.367882 55.94152 C 163.367882 54.864807 163.510672 53.417611 163.800111 51.596074 C 164.101128 49.778397 164.355834 48.165256 164.56809 46.764371 L 166.100187 37.903675 C 166.412782 36.028109 166.393486 34.719844 166.03844 33.971162 C 165.698832 33.214761 165.077502 32.832701 164.174452 32.832701 C 163.151767 32.832701 162.032603 33.508059 160.813099 34.858775 C 159.609033 36.194054 158.404966 38.046465 157.19704 40.416006 C 155.992973 42.77397 154.881527 45.498557 153.858842 48.589767 C 152.836157 51.669399 152.006432 54.926554 151.361947 58.357372 C 150.945155 60.873563 150.82552 62.652649 151.010761 63.702348 C 151.192143 64.748188 151.284764 65.273038 151.284764 65.273038 C 151.284764 65.273038 150.964451 65.396532 150.319967 65.647379 C 149.679341 65.882789 148.606487 65.998565 147.097544 65.998565 C 143.994757 65.998565 142.103755 65.369517 141.420678 64.115281 C 140.753039 62.841749 140.660418 60.811816 141.146676 58.021623 L 144.681693 37.903675 C 145.337755 34.523026 144.720284 32.832701 142.837001 32.832701 C 141.551891 32.832701 140.066103 33.920992 138.375779 36.093715 C 136.685454 38.270297 135.087751 41.276605 133.582667 45.112638 C 132.073725 48.952531 130.869658 53.367442 129.966608 58.357372 C 129.534379 60.873563 129.410885 62.652649 129.592266 63.702348 C 129.789085 64.748188 129.885565 65.273038 129.885565 65.273038 C 129.885565 65.273038 129.561393 65.396532 128.905331 65.647379 C 128.264706 65.882789 127.195711 65.998565 125.702205 65.998565 C 122.583981 65.998565 120.692978 65.369517 120.025339 64.115281 C 119.35384 62.841749 119.265079 60.811816 119.747477 58.021623 L 124.01188 33.403861 C 124.432532 30.88767 124.548307 29.108585 124.366926 28.058885 C 124.181685 27.009186 124.089064 26.488196 124.089064 26.488196 C 124.089064 26.488196 124.413236 26.368561 125.053861 26.13315 C 125.694486 25.886162 126.7712 25.758809 128.276283 25.758809 C 131.379071 25.758809 133.266214 26.376279 133.933853 27.60736 C 134.61693 28.838441 134.713409 30.879952 134.231011 33.735751 L 133.895261 35.661486 C 134.813748 34.156403 135.925194 32.655179 137.237318 31.161673 C 138.557161 29.656589 140.039089 28.379198 141.675385 27.333358 C 143.31554 26.283659 145.044456 25.758809 146.862134 25.758809 C 149.378325 25.758809 151.400539 26.499773 152.936496 27.981702 C 154.468594 29.448193 155.232713 31.497422 155.232713 34.129388 C 155.232713 34.391813 155.221136 34.673534 155.194121 34.974551 C 155.167107 35.275567 155.155529 35.584302 155.155529 35.896897 C 156.00841 34.341644 157.10056 32.786391 158.435839 31.242716 C 159.786555 29.683604 161.303216 28.379198 162.993541 27.333358 C 164.683865 26.283659 166.470669 25.758809 168.357812 25.758809 C 170.874003 25.758809 172.876922 26.511351 174.370428 28.020293 C 175.87937 29.513799 176.631912 31.524436 176.631912 34.052205 C 176.631912 34.901226 176.566306 35.893038 176.435093 37.01992 C 176.303881 38.146803 176.134077 39.331574 175.921821 40.574233 L 173.97679 51.912528 C 173.177939 56.640034 174.277807 59.005716 177.280256 59.005716 Z M 191.358574 48.296469 L 193.932653 33.403861 C 194.364882 30.837501 194.484517 29.042978 194.287698 28.020293 C 194.106316 26.997609 194.013696 26.488196 194.013696 26.488196 C 194.013696 26.488196 194.334008 26.368561 194.974634 26.13315 C 195.619118 25.886162 196.691972 25.758809 198.197056 25.758809 C 201.31528 25.758809 203.210141 26.376279 203.877781 27.60736 C 204.545421 28.838441 204.634182 30.879952 204.151783 33.735751 L 201.006545 51.912528 C 200.639922 54.336098 200.767275 56.122902 201.380886 57.2768 C 201.998356 58.430697 203.032619 59.005716 204.483674 59.005716 C 205.872981 59.005716 207.374206 58.376668 208.983487 57.118573 C 210.596628 55.8489 211.912611 54.13928 212.935296 51.989712 C 213.471723 51.989712 213.884656 52.155657 214.170236 52.483688 C 214.475112 52.796282 214.563873 53.332709 214.448098 54.092969 C 214.235842 55.165824 213.738007 56.377609 212.954592 57.728325 C 212.182754 59.063604 211.152351 60.360291 209.867241 61.618386 C 208.585991 62.876482 207.111781 63.922322 205.448471 64.763625 C 203.78516 65.585632 201.98292 65.998565 200.045607 65.998565 C 197.255414 65.998565 194.99007 65.130248 193.245717 63.385895 C 191.505223 61.645401 190.633047 59.163943 190.633047 55.94152 C 190.633047 55.142668 190.687076 54.073673 190.791274 52.738394 C 190.895472 51.387678 191.084572 49.909609 191.358574 48.296469 Z M 196.742142 13.694987 C 196.742142 12.031677 197.305583 10.650087 198.432466 9.550219 C 199.559349 8.45035 200.875333 7.898486 202.384275 7.898486 C 203.943387 7.898486 205.159031 8.384744 206.038926 9.3534 C 206.92654 10.310479 207.374206 11.514545 207.374206 12.969459 C 207.374206 14.358767 206.849356 15.62844 205.803516 16.782337 C 204.753817 17.932375 203.345213 18.511254 201.577705 18.511254 C 200.138228 18.511254 198.968894 18.059729 198.08128 17.152819 C 197.189808 16.238192 196.742142 15.084294 196.742142 13.694987 Z M 232.235096 39.925889 L 239.170057 43.541949 C 242.118477 45.047032 244.183143 46.660173 245.360195 48.373652 C 246.541107 50.090991 247.127704 52.024444 247.127704 54.170153 C 247.127704 56.265692 246.514093 58.214582 245.283012 60.009105 C 244.051931 61.803627 242.184083 63.250823 239.68333 64.350692 C 237.194153 65.45056 233.991027 65.998565 230.073951 65.998565 C 226.643132 65.998565 223.852939 65.50073 221.703371 64.505059 C 219.553804 63.509389 217.971536 62.278308 216.948852 60.811816 C 215.926167 59.333747 215.416754 57.898129 215.416754 56.508821 C 215.416754 54.949709 215.953181 53.75722 217.026035 52.935213 C 218.102749 52.09391 219.337689 51.677117 220.742434 51.677117 C 222.127882 51.677117 223.119694 51.866218 223.70629 52.244418 C 224.296746 52.611041 224.593903 52.796282 224.593903 52.796282 C 224.593903 52.796282 224.528297 53.000819 224.397085 53.406034 C 224.265872 53.811249 224.200266 54.386268 224.200266 55.13495 C 224.200266 57.126291 224.736693 58.751009 225.809548 60.009105 C 226.882402 61.263341 228.572727 61.919403 230.880521 61.973432 C 233.184457 61.973432 234.886359 61.467878 235.986227 60.46063 C 237.089955 59.437945 237.63796 58.253174 237.63796 56.902458 C 237.63796 55.933802 237.344661 55.034611 236.754206 54.212604 C 236.16375 53.371301 235.144924 52.580167 233.69001 51.835344 L 225.809548 47.648125 C 223.872235 46.575271 222.212784 45.301738 220.838913 43.835247 C 219.47662 42.357178 218.797403 40.273216 218.797403 37.587221 C 218.797403 34.31463 220.217584 31.524436 223.057947 29.216642 C 225.902168 26.912706 230.17043 25.758809 235.870452 25.758809 C 239.197072 25.758809 241.940955 26.256644 244.1021 27.252315 C 246.278682 28.247986 247.887964 29.486785 248.937663 30.968713 C 249.983503 32.435205 250.508353 33.863104 250.508353 35.248553 C 250.508353 36.757496 249.971925 37.942266 248.895212 38.806725 C 247.822358 39.659605 246.591276 40.084116 245.201969 40.084116 C 243.855112 40.084116 242.871019 39.898875 242.257408 39.532252 C 241.639938 39.154052 241.331203 38.964951 241.331203 38.964951 C 241.331203 38.964951 241.396809 38.748837 241.528021 38.316608 C 241.674671 37.884379 241.744136 37.320937 241.744136 36.626283 C 241.744136 34.750718 241.161399 33.149155 239.995924 31.810016 C 238.842026 30.46316 237.140124 29.787802 234.886359 29.787802 C 232.686621 29.787802 231.034889 30.285637 229.93502 31.281308 C 228.850588 32.265401 228.306443 33.454031 228.306443 34.858775 C 228.306443 36.035827 228.626755 37.004484 229.26738 37.764744 C 229.911865 38.513426 230.899817 39.231235 232.235096 39.925889 Z M 232.235096 39.925889 " stroke="#02a850" stroke-width="12.173477" stroke-opacity="1" stroke-miterlimit="4"/></g><g fill="#fffff0" fill-opacity="1"><g transform="translate(113.143797, 85.763171)"><g><path d="M 22.328125 -10.1875 C 22.328125 -10.5625 22.328125 -10.976562 22.328125 -11.4375 C 22.328125 -11.90625 22.351562 -12.410156 22.40625 -12.953125 C 21.207031 -10.617188 19.984375 -8.609375 18.734375 -6.921875 C 17.054688 -4.585938 15.28125 -2.847656 13.40625 -1.703125 C 11.53125 -0.566406 9.476562 0 7.25 0 C 4.53125 0 2.367188 -0.867188 0.765625 -2.609375 C -0.828125 -4.347656 -1.625 -6.628906 -1.625 -9.453125 C -1.625 -10.972656 -1.554688 -12.492188 -1.421875 -14.015625 C -1.285156 -15.535156 -1.03125 -17.351562 -0.65625 -19.46875 L 1.703125 -33 C 2.140625 -35.550781 2.265625 -37.351562 2.078125 -38.40625 C 1.890625 -39.46875 1.796875 -40 1.796875 -40 C 1.796875 -40 2.117188 -40.117188 2.765625 -40.359375 C 3.421875 -40.609375 4.507812 -40.734375 6.03125 -40.734375 C 9.175781 -40.734375 11.085938 -40.109375 11.765625 -38.859375 C 12.453125 -37.609375 12.550781 -35.546875 12.0625 -32.671875 L 8.796875 -13.84375 C 8.421875 -11.507812 8.472656 -9.800781 8.953125 -8.71875 C 9.441406 -7.632812 10.285156 -7.09375 11.484375 -7.09375 C 12.410156 -7.09375 13.390625 -7.59375 14.421875 -8.59375 C 15.453125 -9.601562 16.484375 -10.921875 17.515625 -12.546875 C 18.710938 -14.335938 19.851562 -16.425781 20.9375 -18.8125 C 22.019531 -21.207031 22.992188 -23.707031 23.859375 -26.3125 C 24.734375 -28.914062 25.363281 -31.414062 25.75 -33.8125 C 26.125 -36.039062 26.21875 -37.628906 26.03125 -38.578125 C 25.84375 -39.523438 25.75 -40 25.75 -40 C 25.75 -40 26.070312 -40.117188 26.71875 -40.359375 C 27.375 -40.609375 28.460938 -40.734375 29.984375 -40.734375 C 33.128906 -40.734375 35.039062 -40.109375 35.71875 -38.859375 C 36.40625 -37.609375 36.503906 -35.546875 36.015625 -32.671875 L 32.828125 -14.25 C 32.453125 -11.8125 32.578125 -10.007812 33.203125 -8.84375 C 33.828125 -7.675781 34.867188 -7.09375 36.328125 -7.09375 C 37.742188 -7.09375 39.265625 -7.726562 40.890625 -9 C 42.523438 -10.28125 43.859375 -12.003906 44.890625 -14.171875 C 45.429688 -14.171875 45.847656 -14.007812 46.140625 -13.6875 C 46.441406 -13.363281 46.539062 -12.820312 46.4375 -12.0625 C 46.21875 -10.96875 45.710938 -9.742188 44.921875 -8.390625 C 44.140625 -7.035156 43.097656 -5.71875 41.796875 -4.4375 C 40.492188 -3.164062 39 -2.109375 37.3125 -1.265625 C 35.625 -0.421875 33.804688 0 31.859375 0 C 29.035156 0 26.738281 -0.878906 24.96875 -2.640625 C 23.207031 -4.410156 22.328125 -6.925781 22.328125 -10.1875 Z M 22.328125 -10.1875 "/></g></g></g><g fill="#fffff0" fill-opacity="1"><g transform="translate(164.621396, 85.763171)"><g><path d="M -0.890625 -17.921875 L 1.703125 -33 C 2.140625 -35.601562 2.265625 -37.421875 2.078125 -38.453125 C 1.890625 -39.484375 1.796875 -40 1.796875 -40 C 1.796875 -40 2.117188 -40.117188 2.765625 -40.359375 C 3.421875 -40.609375 4.507812 -40.734375 6.03125 -40.734375 C 9.175781 -40.734375 11.085938 -40.109375 11.765625 -38.859375 C 12.453125 -37.609375 12.550781 -35.546875 12.0625 -32.671875 L 8.875 -14.25 C 8.5 -11.8125 8.625 -10.007812 9.25 -8.84375 C 9.875 -7.675781 10.921875 -7.09375 12.390625 -7.09375 C 13.796875 -7.09375 15.3125 -7.726562 16.9375 -9 C 18.570312 -10.28125 19.90625 -12.003906 20.9375 -14.171875 C 21.476562 -14.171875 21.894531 -14.007812 22.1875 -13.6875 C 22.488281 -13.363281 22.585938 -12.820312 22.484375 -12.0625 C 22.265625 -10.96875 21.757812 -9.742188 20.96875 -8.390625 C 20.1875 -7.035156 19.144531 -5.71875 17.84375 -4.4375 C 16.539062 -3.164062 15.046875 -2.109375 13.359375 -1.265625 C 11.671875 -0.421875 9.851562 0 7.90625 0 C 5.082031 0 2.785156 -0.878906 1.015625 -2.640625 C -0.742188 -4.410156 -1.625 -6.925781 -1.625 -10.1875 C -1.625 -11 -1.566406 -12.082031 -1.453125 -13.4375 C -1.347656 -14.800781 -1.160156 -16.296875 -0.890625 -17.921875 Z M 4.5625 -52.953125 C 4.5625 -54.640625 5.128906 -56.039062 6.265625 -57.15625 C 7.410156 -58.269531 8.742188 -58.828125 10.265625 -58.828125 C 11.835938 -58.828125 13.070312 -58.335938 13.96875 -57.359375 C 14.863281 -56.378906 15.3125 -55.15625 15.3125 -53.6875 C 15.3125 -52.269531 14.78125 -50.976562 13.71875 -49.8125 C 12.664062 -48.644531 11.242188 -48.0625 9.453125 -48.0625 C 7.984375 -48.0625 6.800781 -48.523438 5.90625 -49.453125 C 5.007812 -50.378906 4.5625 -51.546875 4.5625 -52.953125 Z M 4.5625 -52.953125 "/></g></g></g><g fill="#fffff0" fill-opacity="1"><g transform="translate(192.15272, 85.763171)"><g><path d="M 30.140625 -27.125 C 30.140625 -23.976562 29.457031 -21.03125 28.09375 -18.28125 C 26.738281 -15.539062 24.894531 -13.140625 22.5625 -11.078125 C 20.71875 -9.390625 18.707031 -8.03125 16.53125 -7 C 16.96875 -6.789062 17.457031 -6.507812 18 -6.15625 C 18.539062 -5.800781 19.164062 -5.269531 19.875 -4.5625 C 22.269531 -5.488281 24.632812 -6.519531 26.96875 -7.65625 C 29.300781 -8.800781 31.40625 -9.957031 33.28125 -11.125 C 35.15625 -12.289062 36.609375 -13.304688 37.640625 -14.171875 C 38.179688 -14.171875 38.597656 -14.007812 38.890625 -13.6875 C 39.191406 -13.363281 39.289062 -12.898438 39.1875 -12.296875 C 39.019531 -11.597656 38.125 -10.625 36.5 -9.375 C 35.082031 -8.28125 33.109375 -7.015625 30.578125 -5.578125 C 28.054688 -4.140625 25.304688 -2.660156 22.328125 -1.140625 C 23.515625 1.085938 24.109375 3.695312 24.109375 6.6875 C 24.109375 9.445312 23.566406 12.128906 22.484375 14.734375 C 21.398438 17.347656 19.863281 19.6875 17.875 21.75 C 15.894531 23.8125 13.570312 25.453125 10.90625 26.671875 C 8.25 27.898438 5.347656 28.515625 2.203125 28.515625 C -1.328125 28.515625 -3.929688 27.738281 -5.609375 26.1875 C -7.296875 24.644531 -8.140625 22.566406 -8.140625 19.953125 C -8.140625 17.734375 -7.53125 15.519531 -6.3125 13.3125 C -5.09375 11.113281 -3.476562 9.175781 -1.46875 7.5 C 0.488281 5.8125 2.660156 4.25 5.046875 2.8125 C 7.441406 1.375 10.269531 -0.128906 13.53125 -1.703125 C 13.414062 -2.578125 13.234375 -3.3125 12.984375 -3.90625 C 12.742188 -4.507812 12.515625 -4.972656 12.296875 -5.296875 C 10.671875 -4.859375 9.234375 -4.640625 7.984375 -4.640625 C 6.953125 -4.640625 6.164062 -4.867188 5.625 -5.328125 C 5.082031 -5.796875 4.8125 -6.382812 4.8125 -7.09375 C 7.738281 -8.394531 10.382812 -10.289062 12.75 -12.78125 C 15.113281 -15.28125 16.988281 -18.117188 18.375 -21.296875 C 19.757812 -24.472656 20.453125 -27.664062 20.453125 -30.875 C 20.453125 -34.726562 18.578125 -36.65625 14.828125 -36.65625 C 13.203125 -36.65625 11.570312 -36.003906 9.9375 -34.703125 C 8.3125 -33.398438 6.941406 -31.660156 5.828125 -29.484375 C 4.710938 -27.316406 4.15625 -24.929688 4.15625 -22.328125 C 4.15625 -21.835938 4.179688 -21.457031 4.234375 -21.1875 C 4.285156 -20.914062 4.3125 -20.78125 4.3125 -20.78125 C 4.3125 -20.78125 4.132812 -20.710938 3.78125 -20.578125 C 3.4375 -20.441406 2.960938 -20.375 2.359375 -20.375 C 0.617188 -20.375 -0.765625 -20.875 -1.796875 -21.875 C -2.828125 -22.875 -3.34375 -24.21875 -3.34375 -25.90625 C -3.34375 -28.457031 -2.539062 -30.859375 -0.9375 -33.109375 C 0.664062 -35.367188 2.863281 -37.203125 5.65625 -38.609375 C 8.457031 -40.023438 11.625 -40.734375 15.15625 -40.734375 C 20.3125 -40.734375 24.097656 -39.425781 26.515625 -36.8125 C 28.929688 -34.207031 30.140625 -30.976562 30.140625 -27.125 Z M 0.40625 23.140625 C 2.6875 23.140625 4.84375 22.226562 6.875 20.40625 C 8.914062 18.582031 10.570312 16.164062 11.84375 13.15625 C 13.125 10.144531 13.765625 6.875 13.765625 3.34375 L 13.765625 2.765625 C 7.847656 5.703125 3.691406 8.363281 1.296875 10.75 C -0.273438 12.269531 -1.476562 13.75 -2.3125 15.1875 C -3.15625 16.632812 -3.578125 18.0625 -3.578125 19.46875 C -3.578125 21.914062 -2.25 23.140625 0.40625 23.140625 Z M 0.40625 23.140625 "/></g></g></g><g fill="#fffff0" fill-opacity="1"><g transform="translate(236.381271, 85.763171)"><g><path d="M 56.21875 -7.09375 C 57.84375 -7.09375 59.414062 -7.726562 60.9375 -9 C 62.457031 -10.28125 63.734375 -12.003906 64.765625 -14.171875 C 65.304688 -14.171875 65.726562 -14.007812 66.03125 -13.6875 C 66.332031 -13.363281 66.425781 -12.820312 66.3125 -12.0625 C 66.15625 -11.03125 65.664062 -9.832031 64.84375 -8.46875 C 64.03125 -7.113281 62.984375 -5.785156 61.703125 -4.484375 C 60.429688 -3.179688 58.96875 -2.109375 57.3125 -1.265625 C 55.65625 -0.421875 53.878906 0 51.984375 0 C 48.941406 0 46.535156 -0.9375 44.765625 -2.8125 C 43.003906 -4.6875 42.125 -7.144531 42.125 -10.1875 C 42.125 -11.269531 42.269531 -12.734375 42.5625 -14.578125 C 42.863281 -16.429688 43.125 -18.0625 43.34375 -19.46875 L 44.890625 -28.4375 C 45.210938 -30.332031 45.195312 -31.660156 44.84375 -32.421875 C 44.488281 -33.179688 43.851562 -33.5625 42.9375 -33.5625 C 41.90625 -33.5625 40.773438 -32.878906 39.546875 -31.515625 C 38.328125 -30.160156 37.101562 -28.289062 35.875 -25.90625 C 34.65625 -23.519531 33.53125 -20.765625 32.5 -17.640625 C 31.46875 -14.515625 30.628906 -11.210938 29.984375 -7.734375 C 29.546875 -5.179688 29.421875 -3.375 29.609375 -2.3125 C 29.804688 -1.257812 29.90625 -0.734375 29.90625 -0.734375 C 29.90625 -0.734375 29.578125 -0.609375 28.921875 -0.359375 C 28.265625 -0.117188 27.175781 0 25.65625 0 C 22.507812 0 20.597656 -0.632812 19.921875 -1.90625 C 19.242188 -3.1875 19.148438 -5.238281 19.640625 -8.0625 L 23.21875 -28.4375 C 23.875 -31.851562 23.25 -33.5625 21.34375 -33.5625 C 20.039062 -33.5625 18.53125 -32.460938 16.8125 -30.265625 C 15.101562 -28.066406 13.488281 -25.023438 11.96875 -21.140625 C 10.445312 -17.253906 9.226562 -12.785156 8.3125 -7.734375 C 7.875 -5.179688 7.75 -3.375 7.9375 -2.3125 C 8.132812 -1.257812 8.234375 -0.734375 8.234375 -0.734375 C 8.234375 -0.734375 7.90625 -0.609375 7.25 -0.359375 C 6.59375 -0.117188 5.503906 0 3.984375 0 C 0.835938 0 -1.070312 -0.632812 -1.75 -1.90625 C -2.425781 -3.1875 -2.519531 -5.238281 -2.03125 -8.0625 L 2.28125 -33 C 2.71875 -35.550781 2.835938 -37.351562 2.640625 -38.40625 C 2.453125 -39.46875 2.359375 -40 2.359375 -40 C 2.359375 -40 2.679688 -40.117188 3.328125 -40.359375 C 3.984375 -40.609375 5.070312 -40.734375 6.59375 -40.734375 C 9.75 -40.734375 11.664062 -40.109375 12.34375 -38.859375 C 13.019531 -37.609375 13.113281 -35.546875 12.625 -32.671875 L 12.296875 -30.71875 C 13.222656 -32.238281 14.347656 -33.757812 15.671875 -35.28125 C 17.003906 -36.800781 18.5 -38.085938 20.15625 -39.140625 C 21.8125 -40.203125 23.566406 -40.734375 25.421875 -40.734375 C 27.972656 -40.734375 30.019531 -39.984375 31.5625 -38.484375 C 33.113281 -36.992188 33.890625 -34.921875 33.890625 -32.265625 C 33.890625 -31.992188 33.875 -31.707031 33.84375 -31.40625 C 33.820312 -31.101562 33.8125 -30.789062 33.8125 -30.46875 C 34.675781 -32.039062 35.785156 -33.613281 37.140625 -35.1875 C 38.503906 -36.769531 40.039062 -38.085938 41.75 -39.140625 C 43.457031 -40.203125 45.265625 -40.734375 47.171875 -40.734375 C 49.722656 -40.734375 51.757812 -39.972656 53.28125 -38.453125 C 54.800781 -36.929688 55.5625 -34.894531 55.5625 -32.34375 C 55.5625 -31.476562 55.492188 -30.472656 55.359375 -29.328125 C 55.222656 -28.191406 55.046875 -27 54.828125 -25.75 L 52.875 -14.25 C 52.0625 -9.476562 53.175781 -7.09375 56.21875 -7.09375 Z M 56.21875 -7.09375 "/></g></g></g><g fill="#fffff0" fill-opacity="1"><g transform="translate(307.732659, 85.763171)"><g><path d="M -0.890625 -17.921875 L 1.703125 -33 C 2.140625 -35.601562 2.265625 -37.421875 2.078125 -38.453125 C 1.890625 -39.484375 1.796875 -40 1.796875 -40 C 1.796875 -40 2.117188 -40.117188 2.765625 -40.359375 C 3.421875 -40.609375 4.507812 -40.734375 6.03125 -40.734375 C 9.175781 -40.734375 11.085938 -40.109375 11.765625 -38.859375 C 12.453125 -37.609375 12.550781 -35.546875 12.0625 -32.671875 L 8.875 -14.25 C 8.5 -11.8125 8.625 -10.007812 9.25 -8.84375 C 9.875 -7.675781 10.921875 -7.09375 12.390625 -7.09375 C 13.796875 -7.09375 15.3125 -7.726562 16.9375 -9 C 18.570312 -10.28125 19.90625 -12.003906 20.9375 -14.171875 C 21.476562 -14.171875 21.894531 -14.007812 22.1875 -13.6875 C 22.488281 -13.363281 22.585938 -12.820312 22.484375 -12.0625 C 22.265625 -10.96875 21.757812 -9.742188 20.96875 -8.390625 C 20.1875 -7.035156 19.144531 -5.71875 17.84375 -4.4375 C 16.539062 -3.164062 15.046875 -2.109375 13.359375 -1.265625 C 11.671875 -0.421875 9.851562 0 7.90625 0 C 5.082031 0 2.785156 -0.878906 1.015625 -2.640625 C -0.742188 -4.410156 -1.625 -6.925781 -1.625 -10.1875 C -1.625 -11 -1.566406 -12.082031 -1.453125 -13.4375 C -1.347656 -14.800781 -1.160156 -16.296875 -0.890625 -17.921875 Z M 4.5625 -52.953125 C 4.5625 -54.640625 5.128906 -56.039062 6.265625 -57.15625 C 7.410156 -58.269531 8.742188 -58.828125 10.265625 -58.828125 C 11.835938 -58.828125 13.070312 -58.335938 13.96875 -57.359375 C 14.863281 -56.378906 15.3125 -55.15625 15.3125 -53.6875 C 15.3125 -52.269531 14.78125 -50.976562 13.71875 -49.8125 C 12.664062 -48.644531 11.242188 -48.0625 9.453125 -48.0625 C 7.984375 -48.0625 6.800781 -48.523438 5.90625 -49.453125 C 5.007812 -50.378906 4.5625 -51.546875 4.5625 -52.953125 Z M 4.5625 -52.953125 "/></g></g></g><g fill="#fffff0" fill-opacity="1"><g transform="translate(335.263982, 85.763171)"><g><path d="M 12.953125 -26.390625 L 19.953125 -22.734375 C 22.941406 -21.210938 25.035156 -19.582031 26.234375 -17.84375 C 27.429688 -16.101562 28.03125 -14.144531 28.03125 -11.96875 C 28.03125 -9.851562 27.40625 -7.882812 26.15625 -6.0625 C 24.90625 -4.25 23.015625 -2.785156 20.484375 -1.671875 C 17.960938 -0.554688 14.71875 0 10.75 0 C 7.28125 0 4.457031 -0.5 2.28125 -1.5 C 0.101562 -2.507812 -1.5 -3.757812 -2.53125 -5.25 C -3.5625 -6.75 -4.078125 -8.203125 -4.078125 -9.609375 C -4.078125 -11.179688 -3.53125 -12.390625 -2.4375 -13.234375 C -1.351562 -14.078125 -0.109375 -14.5 1.296875 -14.5 C 2.710938 -14.5 3.71875 -14.304688 4.3125 -13.921875 C 4.914062 -13.546875 5.21875 -13.359375 5.21875 -13.359375 C 5.21875 -13.359375 5.148438 -13.15625 5.015625 -12.75 C 4.878906 -12.34375 4.8125 -11.757812 4.8125 -11 C 4.8125 -8.988281 5.351562 -7.34375 6.4375 -6.0625 C 7.519531 -4.789062 9.226562 -4.128906 11.5625 -4.078125 C 13.90625 -4.078125 15.628906 -4.59375 16.734375 -5.625 C 17.847656 -6.65625 18.40625 -7.847656 18.40625 -9.203125 C 18.40625 -10.179688 18.109375 -11.09375 17.515625 -11.9375 C 16.921875 -12.78125 15.890625 -13.582031 14.421875 -14.34375 L 6.4375 -18.578125 C 4.476562 -19.660156 2.804688 -20.945312 1.421875 -22.4375 C 0.0351562 -23.9375 -0.65625 -26.046875 -0.65625 -28.765625 C -0.65625 -32.078125 0.78125 -34.898438 3.65625 -37.234375 C 6.539062 -39.566406 10.863281 -40.734375 16.625 -40.734375 C 19.988281 -40.734375 22.769531 -40.226562 24.96875 -39.21875 C 27.164062 -38.21875 28.796875 -36.96875 29.859375 -35.46875 C 30.921875 -33.976562 31.453125 -32.53125 31.453125 -31.125 C 31.453125 -29.601562 30.90625 -28.40625 29.8125 -27.53125 C 28.726562 -26.664062 27.476562 -26.234375 26.0625 -26.234375 C 24.707031 -26.234375 23.71875 -26.421875 23.09375 -26.796875 C 22.46875 -27.179688 22.15625 -27.375 22.15625 -27.375 C 22.15625 -27.375 22.222656 -27.585938 22.359375 -28.015625 C 22.492188 -28.453125 22.5625 -29.023438 22.5625 -29.734375 C 22.5625 -31.640625 21.976562 -33.269531 20.8125 -34.625 C 19.644531 -35.976562 17.921875 -36.65625 15.640625 -36.65625 C 13.410156 -36.65625 11.738281 -36.148438 10.625 -35.140625 C 9.519531 -34.140625 8.96875 -32.9375 8.96875 -31.53125 C 8.96875 -30.332031 9.289062 -29.351562 9.9375 -28.59375 C 10.59375 -27.832031 11.597656 -27.097656 12.953125 -26.390625 Z M 12.953125 -26.390625 "/></g></g></g><g clip-path="url(#232fe297fd)"><path fill="#02a850" d="M 56.132812 2.328125 Z M 56.132812 2.328125 Z M 56.132812 5.539062 Z M 56.132812 5.539062 Z M 56.132812 5.539062 Z M 56.132812 5.539062 Z M 56.132812 5.539062 L 56.132812 67.402344 Z M 56.132812 2.328125 L 2.15625 18.117188 C 2.128906 39.890625 2.804688 56.050781 4.1875 66.601562 C 4.707031 70.859375 5.394531 74.933594 6.242188 78.828125 L 7.667969 84.503906 C 8.710938 88.183594 9.976562 91.617188 11.46875 94.800781 C 12.976562 97.96875 14.707031 100.890625 16.664062 103.5625 C 17.421875 105.140625 20.757812 108.703125 26.675781 114.25 C 32.789062 119.585938 42.609375 125.660156 56.132812 132.476562 L 56.132812 5.539062 L 56.132812 129.265625 C 43.277344 122.785156 33.941406 117.011719 28.128906 111.941406 C 22.503906 106.667969 19.332031 103.28125 18.609375 101.777344 C 16.75 99.238281 15.105469 96.460938 13.671875 93.449219 C 12.253906 90.421875 11.046875 87.160156 10.058594 83.660156 L 8.703125 78.265625 C 7.894531 74.5625 7.246094 70.6875 6.75 66.640625 C 5.433594 56.609375 4.792969 41.246094 4.820312 20.546875 L 56.132812 5.539062 Z M 56.132812 2.328125 L 56.132812 5.539062 L 107.445312 20.546875 C 107.472656 41.246094 106.828125 56.609375 105.515625 66.640625 C 105.019531 70.6875 104.367188 74.5625 103.5625 78.265625 L 102.207031 83.660156 C 101.214844 87.160156 100.011719 90.421875 98.59375 93.449219 C 97.160156 96.460938 95.515625 99.238281 93.65625 101.777344 C 92.933594 103.28125 89.761719 106.667969 84.132812 111.941406 C 78.324219 117.011719 68.988281 122.785156 56.132812 129.265625 L 56.132812 67.402344 L 56.132812 132.476562 C 69.65625 125.660156 79.472656 119.585938 85.585938 114.25 C 91.503906 108.703125 94.84375 105.140625 95.601562 103.5625 C 97.558594 100.890625 99.289062 97.96875 100.796875 94.800781 C 102.289062 91.617188 103.554688 88.183594 104.597656 84.503906 L 106.023438 78.828125 C 106.871094 74.933594 107.554688 70.859375 108.078125 66.601562 C 109.460938 56.050781 110.136719 39.890625 110.105469 18.117188 Z M 56.132812 2.328125 " fill-opacity="1" fill-rule="nonzero"/></g><path fill="#02a850" d="M 56.132812 8.746094 Z M 56.132812 8.746094 Z M 56.132812 8.746094 L 7.480469 22.976562 C 7.453125 42.601562 8.0625 57.171875 9.308594 66.679688 C 9.777344 70.515625 10.394531 74.191406 11.160156 77.703125 L 12.445312 82.816406 C 13.382812 86.136719 14.527344 89.230469 15.871094 92.097656 C 17.230469 94.957031 18.789062 97.589844 20.554688 100 C 21.238281 101.421875 24.246094 104.632812 29.582031 109.632812 C 35.089844 114.441406 43.941406 119.917969 56.132812 126.0625 Z M 56.132812 8.746094 L 56.132812 126.0625 C 68.324219 119.917969 77.171875 114.441406 82.683594 109.632812 C 88.019531 104.632812 91.027344 101.421875 91.710938 100 C 93.476562 97.589844 95.035156 94.957031 96.394531 92.097656 C 97.738281 89.230469 98.878906 86.136719 99.820312 82.816406 L 101.105469 77.703125 C 101.871094 74.191406 102.488281 70.515625 102.957031 66.679688 C 104.203125 57.171875 104.8125 42.601562 104.785156 22.976562 Z M 56.132812 8.746094 " fill-opacity="1" fill-rule="nonzero"/><g fill="#fffff0" fill-opacity="1"><g transform="translate(14.024257, 91.089254)"><g><path d="M 61.484375 6.3125 C 56.671875 6.3125 53.5625 3.859375 51.578125 -0.1875 C 65.90625 -3.765625 75.625 -14.796875 75.625 -33 C 75.625 -55.453125 60.828125 -67.140625 40.640625 -67.140625 C 20.375 -67.140625 5.5625 -55.453125 5.5625 -33 C 5.5625 -10.5625 20.375 1.125 40.546875 1.125 C 42.4375 11.3125 47.4375 17.921875 58 17.921875 C 68.546875 17.921875 74.6875 10.46875 74.6875 -4.15625 L 74.015625 -4.15625 C 71.484375 3.953125 66.671875 6.3125 61.484375 6.3125 Z M 40.640625 -62.890625 C 52.140625 -62.890625 59.21875 -52.71875 59.21875 -33 C 59.21875 -19.046875 55.734375 -9.90625 49.59375 -5.75 C 49.3125 -6.890625 49.03125 -8.109375 48.84375 -9.328125 C 46.765625 -22.625 43.09375 -28.671875 34.796875 -28.671875 C 29.984375 -28.671875 25.9375 -25.9375 23.765625 -18.484375 C 22.625 -22.53125 22.0625 -27.34375 22.0625 -33 C 22.0625 -52.71875 29.046875 -62.890625 40.640625 -62.890625 Z M 25.75 -13.015625 C 26.6875 -19.796875 29.703125 -24.140625 33.5625 -24.140625 C 37.71875 -24.140625 39.234375 -19.703125 39.609375 -8.578125 C 39.703125 -6.6875 39.796875 -4.90625 39.984375 -3.109375 C 33.65625 -3.390625 28.765625 -6.6875 25.75 -13.015625 Z M 25.75 -13.015625 "/></g></g></g></svg>