<svg xmlns="http://www.w3.org/2000/svg" xmlns:xlink="http://www.w3.org/1999/xlink" width="500" zoomAndPan="magnify" viewBox="0 0 375 135.000003" height="180" preserveAspectRatio="xMidYMid meet" version="1.0"><defs><clipPath id="f245ea9a70"><path d="M 34.082031 28.519531 L 372 28.519531 L 372 133.671875 L 34.082031 133.671875 Z M 34.082031 28.519531 " clip-rule="nonzero"/></clipPath><clipPath id="7af432bd2a"><path d="M 41.773438 28.519531 L 364.125 28.519531 C 368.375 28.519531 371.816406 31.964844 371.816406 36.210938 L 371.816406 125.980469 C 371.816406 130.230469 368.375 133.671875 364.125 133.671875 L 41.773438 133.671875 C 37.523438 133.671875 34.082031 130.230469 34.082031 125.980469 L 34.082031 36.210938 C 34.082031 31.964844 37.523438 28.519531 41.773438 28.519531 Z M 41.773438 28.519531 " clip-rule="nonzero"/></clipPath><clipPath id="db47bec929"><path d="M 47.875 50 L 358.394531 50 L 358.394531 123.742188 L 47.875 123.742188 Z M 47.875 50 " clip-rule="nonzero"/></clipPath><clipPath id="c4c07de10f"><path d="M 47.875 38.257812 L 358.394531 38.257812 L 358.394531 112 L 47.875 112 Z M 47.875 38.257812 " clip-rule="nonzero"/></clipPath><clipPath id="0268cb07fe"><path d="M 3.183594 0 L 83.640625 0 L 83.640625 76.6875 L 3.183594 76.6875 Z M 3.183594 0 " clip-rule="nonzero"/></clipPath></defs><g clip-path="url(#f245ea9a70)"><g clip-path="url(#7af432bd2a)"><path fill="#9fc7aa" d="M 34.082031 28.519531 L 371.71875 28.519531 L 371.71875 133.671875 L 34.082031 133.671875 Z M 34.082031 28.519531 " fill-opacity="1" fill-rule="nonzero"/></g></g><g clip-path="url(#db47bec929)"><path fill="#2c8c3b" d="M 345.851562 123.917969 L 60.046875 123.917969 C 53.3125 123.917969 47.875 118.480469 47.875 111.765625 L 47.875 63.121094 C 47.875 56.40625 53.3125 50.953125 60.046875 50.953125 L 345.851562 50.953125 C 352.566406 50.953125 358.019531 56.390625 358.019531 63.121094 L 358.019531 111.765625 C 358.003906 118.480469 352.566406 123.917969 345.851562 123.917969 Z M 345.851562 123.917969 " fill-opacity="1" fill-rule="nonzero"/></g><g clip-path="url(#c4c07de10f)"><path fill="#fffff0" d="M 345.851562 111.226562 L 60.046875 111.226562 C 53.328125 111.226562 47.875 105.789062 47.875 99.054688 L 47.875 50.410156 C 47.875 43.695312 53.3125 38.257812 60.046875 38.257812 L 345.851562 38.257812 C 352.566406 38.257812 358.019531 43.695312 358.019531 50.429688 L 358.019531 99.074219 C 358.003906 105.789062 352.566406 111.226562 345.851562 111.226562 Z M 345.851562 111.226562 " fill-opacity="1" fill-rule="nonzero"/></g><path fill="#02a850" d="M 345.851562 105.953125 L 60.046875 105.953125 C 56.261719 105.953125 53.164062 102.871094 53.164062 99.074219 L 53.164062 50.429688 C 53.164062 46.644531 56.246094 43.550781 60.046875 43.550781 L 345.851562 43.550781 C 349.636719 43.550781 352.730469 46.628906 352.730469 50.429688 L 352.730469 99.074219 C 352.730469 102.855469 349.636719 105.953125 345.851562 105.953125 Z M 60.046875 47.070312 C 58.195312 47.070312 56.6875 48.578125 56.6875 50.429688 L 56.6875 99.074219 C 56.6875 100.921875 58.195312 102.414062 60.046875 102.414062 L 345.851562 102.414062 C 347.703125 102.414062 349.210938 100.90625 349.210938 99.074219 L 349.210938 50.429688 C 349.210938 48.578125 347.703125 47.085938 345.851562 47.085938 Z M 60.046875 47.070312 " fill-opacity="1" fill-rule="nonzero"/><g clip-path="url(#0268cb07fe)"><path fill="#ffffff" d="M 22.773438 76.511719 C 22.289062 76.511719 21.835938 76.40625 21.429688 76.195312 C 20.71875 75.828125 20.167969 75.226562 19.726562 74.734375 C 19.65625 74.644531 19.574219 74.566406 19.507812 74.492188 C 15.316406 70.019531 13.628906 63.472656 15.148438 57.695312 C 14.914062 55.898438 15.769531 54.195312 17.246094 53.300781 C 17.09375 51.664062 17.09375 49.847656 17.238281 47.699219 C 17.304688 46.765625 17.386719 45.886719 17.472656 45.042969 C 13.882812 45.5625 10.183594 46.097656 6.65625 47 C 6.472656 47.046875 6.292969 47.066406 6.117188 47.066406 C 5.816406 47.066406 5.53125 47.007812 5.257812 46.882812 C 4.664062 46.648438 4.226562 46.140625 4.046875 45.511719 L 4.011719 45.363281 C 3.710938 44.269531 3.402344 43.140625 3.285156 41.945312 C 3.203125 41.097656 3.617188 40.320312 4.328125 39.933594 C 6.449219 38.316406 8.605469 36.664062 10.683594 35.066406 C 18.121094 29.355469 25.804688 23.453125 33.75 18.109375 C 33.808594 17.183594 34.144531 16.332031 34.738281 15.589844 C 35.398438 14.761719 36.355469 14.304688 37.425781 14.304688 C 38.058594 14.304688 38.695312 14.46875 39.289062 14.769531 C 45.367188 11.515625 51.796875 9.484375 58.398438 7.523438 C 61.046875 6.738281 63.703125 5.742188 66.273438 4.785156 C 67.117188 4.46875 67.96875 4.15625 68.8125 3.847656 C 72.570312 2.464844 75.984375 1.261719 79.238281 0.160156 C 79.5 0.0507812 79.765625 0 80.042969 0 C 80.109375 0 80.175781 0 80.242188 0.0078125 C 80.464844 0.03125 80.675781 0.0820312 80.875 0.160156 C 81.292969 0.308594 81.660156 0.578125 81.921875 0.945312 L 83.621094 3.296875 C 84.230469 4.132812 84.148438 5.234375 83.429688 5.953125 C 83.304688 6.101562 83.148438 6.226562 82.988281 6.328125 C 78.210938 9.402344 73.855469 12.316406 69.679688 15.253906 C 68.96875 15.761719 68.21875 16.289062 67.441406 16.855469 C 70.371094 18.804688 73.054688 21.097656 75.441406 23.679688 C 75.847656 24.121094 76.042969 24.671875 76.015625 25.242188 C 76.015625 25.316406 76.007812 25.425781 75.984375 25.550781 C 75.265625 30.222656 74.230469 33.867188 72.71875 37.039062 C 71.109375 40.402344 68.820312 43.175781 65.898438 45.289062 C 62.433594 47.808594 58.40625 49.429688 55.675781 50.429688 C 48.980469 52.851562 41.609375 54.097656 33.753906 54.097656 C 33.199219 54.097656 32.625 54.09375 32.058594 54.078125 C 31.449219 54.0625 30.886719 53.796875 30.496094 53.359375 C 30.445312 53.300781 30.378906 53.226562 30.3125 53.136719 C 29.617188 52.152344 28.984375 51.105469 28.425781 50.011719 C 28.375 49.921875 28.332031 49.835938 28.285156 49.738281 C 27.859375 48.871094 27.480469 47.976562 27.15625 47.066406 C 27.089844 46.921875 27.03125 46.773438 26.996094 46.613281 C 26.664062 45.636719 26.398438 44.636719 26.1875 43.617188 C 25.621094 43.734375 25.019531 43.84375 24.382812 43.960938 C 24.074219 45.503906 23.851562 47.117188 23.722656 48.785156 C 23.605469 50.253906 23.5 52.117188 23.664062 53.980469 C 24.449219 54.414062 25.085938 55.0625 25.488281 55.832031 C 25.894531 56.617188 26.039062 57.484375 25.921875 58.34375 C 26.796875 59.832031 28.039062 61.203125 29.25 62.542969 L 29.261719 62.554688 C 29.558594 62.878906 29.894531 63.203125 30.246094 63.546875 C 30.921875 64.199219 31.613281 64.875 32.175781 65.683594 C 32.542969 66.210938 32.640625 66.851562 32.472656 67.445312 C 32 70.386719 30.496094 72.914062 28.222656 74.550781 C 26.980469 75.445312 25.488281 76.070312 23.925781 76.347656 L 23.785156 76.378906 C 23.5 76.445312 23.164062 76.511719 22.773438 76.511719 Z M 22.773438 76.511719 " fill-opacity="1" fill-rule="nonzero"/></g><path fill="#363636" d="M 82.253906 4.84375 C 82.21875 4.890625 82.171875 4.933594 82.121094 4.96875 C 77.609375 7.867188 73.144531 10.847656 68.761719 13.933594 C 67.359375 14.914062 65.972656 15.921875 64.59375 16.925781 C 68.183594 19.054688 71.433594 21.675781 74.269531 24.746094 C 74.390625 24.875 74.429688 25.023438 74.414062 25.171875 C 74.414062 25.207031 74.414062 25.242188 74.40625 25.289062 C 73.828125 29.082031 72.933594 32.863281 71.273438 36.335938 C 69.8125 39.394531 67.707031 41.988281 64.953125 43.984375 C 61.996094 46.136719 58.542969 47.660156 55.117188 48.910156 C 47.761719 51.605469 39.90625 52.660156 32.097656 52.484375 C 31.914062 52.476562 31.773438 52.402344 31.683594 52.285156 C 31.664062 52.265625 31.640625 52.234375 31.621094 52.207031 C 30.945312 51.25 30.347656 50.253906 29.828125 49.21875 C 29.800781 49.175781 29.777344 49.128906 29.753906 49.078125 C 29.328125 48.210938 28.953125 47.324219 28.632812 46.421875 C 28.585938 46.355469 28.566406 46.273438 28.550781 46.199219 C 28.050781 44.746094 27.699219 43.242188 27.488281 41.703125 C 26.019531 42.039062 24.535156 42.324219 23.054688 42.582031 C 22.597656 44.585938 22.296875 46.625 22.136719 48.660156 C 21.964844 50.78125 21.894531 52.976562 22.1875 55.097656 C 22.222656 55.105469 22.261719 55.113281 22.296875 55.121094 C 23.808594 55.582031 24.734375 57.074219 24.242188 58.585938 C 25.210938 60.457031 26.6875 62.085938 28.089844 63.636719 C 28.976562 64.609375 30.121094 65.519531 30.878906 66.609375 C 30.980469 66.761719 30.988281 66.929688 30.921875 67.078125 C 30.5625 69.542969 29.328125 71.804688 27.289062 73.273438 C 26.214844 74.050781 24.945312 74.566406 23.648438 74.800781 C 23.125 74.894531 22.621094 75.019531 22.148438 74.785156 C 21.597656 74.5 21.078125 73.859375 20.660156 73.414062 C 16.835938 69.332031 15.214844 63.179688 16.777344 57.785156 C 16.761719 57.742188 16.753906 57.695312 16.746094 57.644531 C 16.476562 56.117188 17.460938 54.644531 18.972656 54.320312 C 18.648438 52.175781 18.679688 49.964844 18.824219 47.824219 C 18.925781 46.324219 19.082031 44.753906 19.332031 43.175781 C 14.957031 43.824219 10.558594 44.378906 6.257812 45.472656 C 6.117188 45.511719 5.992188 45.488281 5.890625 45.4375 C 5.75 45.386719 5.632812 45.269531 5.574219 45.085938 C 5.28125 44.007812 4.972656 42.90625 4.863281 41.796875 C 4.839844 41.539062 4.972656 41.378906 5.148438 41.304688 C 5.148438 41.304688 5.15625 41.304688 5.15625 41.296875 C 15.132812 33.722656 24.941406 25.90625 35.363281 18.945312 C 35.238281 18.136719 35.390625 17.316406 35.972656 16.597656 C 36.78125 15.589844 38.136719 15.789062 39.070312 16.515625 C 39.121094 16.554688 39.171875 16.597656 39.214844 16.640625 C 39.253906 16.605469 39.289062 16.574219 39.339844 16.546875 C 45.476562 13.148438 52.152344 11.03125 58.839844 9.042969 C 62.40625 7.988281 65.863281 6.605469 69.347656 5.328125 C 72.820312 4.058594 76.300781 2.820312 79.800781 1.636719 C 79.898438 1.59375 79.992188 1.570312 80.082031 1.585938 C 80.15625 1.59375 80.226562 1.613281 80.28125 1.644531 C 80.40625 1.671875 80.523438 1.738281 80.609375 1.863281 C 81.175781 2.648438 81.742188 3.429688 82.304688 4.214844 C 82.496094 4.457031 82.421875 4.691406 82.253906 4.84375 Z M 82.253906 4.84375 " fill-opacity="1" fill-rule="nonzero"/><path fill="#02a850" d="M 82.3125 4.207031 C 81.746094 3.421875 81.183594 2.644531 80.617188 1.855469 C 80.527344 1.730469 80.410156 1.660156 80.285156 1.636719 C 80.226562 1.601562 80.160156 1.578125 80.089844 1.578125 C 80 1.5625 79.90625 1.585938 79.808594 1.628906 C 76.308594 2.8125 72.828125 4.050781 69.355469 5.320312 C 65.871094 6.597656 62.40625 7.980469 58.84375 9.035156 C 52.15625 11.027344 45.484375 13.148438 39.347656 16.539062 C 39.296875 16.566406 39.261719 16.597656 39.222656 16.632812 C 39.171875 16.589844 39.128906 16.546875 39.078125 16.507812 C 38.144531 15.78125 36.792969 15.578125 35.980469 16.589844 C 35.398438 17.308594 35.246094 18.132812 35.371094 18.9375 C 24.945312 25.898438 15.140625 33.714844 5.164062 41.289062 C 5.164062 41.289062 5.15625 41.289062 5.15625 41.296875 C 4.980469 41.363281 4.839844 41.523438 4.871094 41.789062 C 4.980469 42.90625 5.289062 44.007812 5.582031 45.078125 C 5.632812 45.269531 5.75 45.378906 5.898438 45.429688 C 6 45.480469 6.125 45.496094 6.265625 45.46875 C 10.558594 44.375 14.957031 43.816406 19.339844 43.167969 C 19.097656 44.746094 18.941406 46.320312 18.832031 47.816406 C 18.683594 49.960938 18.65625 52.167969 18.980469 54.3125 C 17.472656 54.636719 16.484375 56.109375 16.753906 57.636719 C 16.761719 57.679688 16.777344 57.734375 16.785156 57.777344 C 15.21875 63.171875 16.84375 69.324219 20.667969 73.40625 C 21.085938 73.851562 21.597656 74.492188 22.15625 74.777344 C 22.628906 75.019531 23.132812 74.886719 23.65625 74.792969 C 24.953125 74.558594 26.222656 74.042969 27.296875 73.265625 C 29.335938 71.796875 30.5625 69.535156 30.929688 67.070312 C 30.996094 66.921875 30.988281 66.753906 30.886719 66.601562 C 30.128906 65.515625 28.976562 64.605469 28.097656 63.628906 C 26.695312 62.078125 25.21875 60.449219 24.25 58.578125 C 24.742188 57.066406 23.816406 55.574219 22.304688 55.113281 C 22.265625 55.097656 22.230469 55.097656 22.195312 55.089844 C 21.902344 52.960938 21.972656 50.765625 22.144531 48.652344 C 22.304688 46.613281 22.597656 44.570312 23.058594 42.574219 C 24.542969 42.316406 26.027344 42.039062 27.492188 41.695312 C 27.707031 43.234375 28.058594 44.742188 28.558594 46.195312 C 28.574219 46.273438 28.59375 46.347656 28.640625 46.414062 C 28.953125 47.324219 29.328125 48.210938 29.761719 49.070312 C 29.777344 49.121094 29.804688 49.167969 29.835938 49.210938 C 30.355469 50.246094 30.953125 51.242188 31.625 52.199219 C 31.648438 52.226562 31.671875 52.257812 31.691406 52.277344 C 31.78125 52.390625 31.914062 52.46875 32.105469 52.476562 C 39.914062 52.652344 47.777344 51.597656 55.132812 48.902344 C 58.558594 47.648438 62 46.128906 64.96875 43.976562 C 67.71875 41.980469 69.820312 39.390625 71.289062 36.328125 C 72.945312 32.847656 73.835938 29.070312 74.421875 25.28125 C 74.429688 25.242188 74.429688 25.199219 74.429688 25.164062 C 74.445312 25.023438 74.398438 24.871094 74.28125 24.738281 C 71.449219 21.675781 68.195312 19.046875 64.609375 16.917969 C 65.988281 15.90625 67.375 14.910156 68.777344 13.925781 C 73.167969 10.84375 77.628906 7.863281 82.136719 4.960938 C 82.195312 4.925781 82.238281 4.882812 82.269531 4.835938 C 82.421875 4.691406 82.496094 4.457031 82.3125 4.207031 Z M 19.53125 42.039062 C 19.492188 42.039062 19.464844 42.039062 19.425781 42.046875 C 15.101562 42.691406 10.757812 43.226562 6.507812 44.261719 C 6.316406 43.585938 6.132812 42.898438 6.03125 42.207031 C 10.609375 41.09375 15.308594 40.652344 19.96875 39.976562 C 19.800781 40.660156 19.65625 41.347656 19.53125 42.039062 Z M 36.605469 17.734375 C 37.21875 16.398438 38.570312 17.34375 39.113281 18.234375 C 39.5625 18.960938 39.753906 19.820312 39.945312 20.640625 C 39.796875 21.191406 39.296875 21.574219 38.71875 21.53125 C 38.679688 21.523438 38.652344 21.53125 38.621094 21.53125 C 37.332031 20.933594 35.929688 19.203125 36.605469 17.734375 Z M 71.175781 23.21875 C 71.902344 23.894531 72.601562 24.589844 73.285156 25.316406 C 72.285156 31.628906 70.347656 38.242188 65.1875 42.414062 C 62.316406 44.734375 58.824219 46.324219 55.386719 47.625 C 51.953125 48.925781 48.386719 49.878906 44.765625 50.496094 C 40.675781 51.199219 36.53125 51.449219 32.382812 51.375 C 31.949219 50.746094 31.554688 50.097656 31.179688 49.429688 C 38.476562 49.371094 45.773438 48.21875 52.613281 45.628906 C 56.019531 44.335938 59.433594 42.789062 62.339844 40.570312 C 64.921875 38.597656 66.890625 36.054688 68.269531 33.121094 C 69.746094 29.992188 70.605469 26.625 71.175781 23.21875 Z M 67.34375 20.070312 C 66.347656 25.992188 64.484375 32.171875 59.777344 36.210938 C 57.179688 38.433594 54.007812 39.984375 50.859375 41.269531 C 47.703125 42.558594 44.429688 43.550781 41.089844 44.25 C 37.273438 45.046875 33.386719 45.445312 29.492188 45.539062 C 29.058594 44.210938 28.742188 42.847656 28.566406 41.445312 C 30.929688 40.851562 33.242188 40.085938 35.445312 39.023438 C 39.378906 37.128906 42.769531 34.332031 46.085938 31.535156 C 51.792969 26.726562 57.621094 22.066406 63.617188 17.640625 C 64.910156 18.386719 66.148438 19.195312 67.34375 20.070312 Z M 58.601562 20.015625 C 54.910156 22.851562 51.277344 25.757812 47.703125 28.738281 C 44.253906 31.617188 40.890625 34.660156 36.992188 36.9375 C 32.792969 39.394531 28.089844 40.554688 23.339844 41.40625 C 23.523438 40.695312 23.726562 40 23.964844 39.308594 L 23.964844 39.300781 C 27.890625 38.5 31.75 37.238281 35.222656 35.191406 C 38.9375 32.996094 42.183594 30.101562 45.457031 27.320312 C 52.320312 21.484375 59.636719 16.230469 67.117188 11.214844 C 71.367188 8.367188 75.664062 5.601562 79.964844 2.839844 C 80.324219 3.339844 80.691406 3.839844 81.050781 4.34375 C 73.371094 9.285156 65.847656 14.46875 58.601562 20.015625 Z M 58.601562 20.015625 " fill-opacity="1" fill-rule="nonzero"/><path fill="#575757" d="M 82.3125 4.207031 C 81.746094 3.421875 81.183594 2.644531 80.617188 1.855469 C 80.527344 1.730469 80.410156 1.660156 80.285156 1.636719 C 80.226562 1.601562 80.160156 1.578125 80.089844 1.578125 C 80 1.5625 79.90625 1.585938 79.808594 1.628906 C 76.308594 2.8125 72.828125 4.050781 69.355469 5.320312 C 65.871094 6.597656 62.40625 7.980469 58.84375 9.035156 C 52.15625 11.027344 45.484375 13.148438 39.347656 16.539062 C 39.296875 16.566406 39.261719 16.597656 39.222656 16.632812 C 39.171875 16.589844 39.128906 16.546875 39.078125 16.507812 C 38.144531 15.78125 36.792969 15.578125 35.980469 16.589844 C 35.398438 17.308594 35.246094 18.132812 35.371094 18.9375 C 24.945312 25.898438 15.140625 33.714844 5.164062 41.289062 C 5.164062 41.289062 5.15625 41.289062 5.15625 41.296875 C 4.980469 41.363281 4.839844 41.523438 4.871094 41.789062 C 4.980469 42.90625 5.289062 44.007812 5.582031 45.078125 C 5.632812 45.269531 5.75 45.378906 5.898438 45.429688 C 6 45.480469 6.125 45.496094 6.265625 45.46875 C 10.558594 44.375 14.957031 43.816406 19.339844 43.167969 C 19.097656 44.746094 18.941406 46.320312 18.832031 47.816406 C 18.683594 49.960938 18.65625 52.167969 18.980469 54.3125 C 17.472656 54.636719 16.484375 56.109375 16.753906 57.636719 C 16.761719 57.679688 16.777344 57.734375 16.785156 57.777344 C 15.21875 63.171875 16.84375 69.324219 20.667969 73.40625 C 21.085938 73.851562 21.597656 74.492188 22.15625 74.777344 C 22.628906 75.019531 23.132812 74.886719 23.65625 74.792969 C 24.953125 74.558594 26.222656 74.042969 27.296875 73.265625 C 29.335938 71.796875 30.5625 69.535156 30.929688 67.070312 C 30.996094 66.921875 30.988281 66.753906 30.886719 66.601562 C 30.128906 65.515625 28.976562 64.605469 28.097656 63.628906 C 26.695312 62.078125 25.21875 60.449219 24.25 58.578125 C 24.742188 57.066406 23.816406 55.574219 22.304688 55.113281 C 22.265625 55.097656 22.230469 55.097656 22.195312 55.089844 C 21.902344 52.960938 21.972656 50.765625 22.144531 48.652344 C 22.304688 46.613281 22.597656 44.570312 23.058594 42.574219 C 24.542969 42.316406 26.027344 42.039062 27.492188 41.695312 C 27.707031 43.234375 28.058594 44.742188 28.558594 46.195312 C 28.574219 46.273438 28.59375 46.347656 28.640625 46.414062 C 28.953125 47.324219 29.328125 48.210938 29.761719 49.070312 C 29.777344 49.121094 29.804688 49.167969 29.835938 49.210938 C 30.355469 50.246094 30.953125 51.242188 31.625 52.199219 C 31.648438 52.226562 31.671875 52.257812 31.691406 52.277344 C 31.78125 52.390625 31.914062 52.46875 32.105469 52.476562 C 39.914062 52.652344 47.777344 51.597656 55.132812 48.902344 C 58.558594 47.648438 62 46.128906 64.96875 43.976562 C 67.71875 41.980469 69.820312 39.390625 71.289062 36.328125 C 72.945312 32.847656 73.835938 29.070312 74.421875 25.28125 C 74.429688 25.242188 74.429688 25.199219 74.429688 25.164062 C 74.445312 25.023438 74.398438 24.871094 74.28125 24.738281 C 71.449219 21.675781 68.195312 19.046875 64.609375 16.917969 C 65.988281 15.90625 67.375 14.910156 68.777344 13.925781 C 73.167969 10.84375 77.628906 7.863281 82.136719 4.960938 C 82.195312 4.925781 82.238281 4.882812 82.269531 4.835938 C 82.421875 4.691406 82.496094 4.457031 82.3125 4.207031 Z M 36.605469 17.734375 C 37.21875 16.398438 38.570312 17.34375 39.113281 18.234375 C 39.5625 18.960938 39.753906 19.820312 39.945312 20.640625 C 39.796875 21.191406 39.296875 21.574219 38.71875 21.53125 C 38.679688 21.523438 38.652344 21.53125 38.621094 21.53125 C 37.332031 20.933594 35.929688 19.203125 36.605469 17.734375 Z M 6.507812 44.261719 C 6.316406 43.585938 6.132812 42.898438 6.03125 42.207031 C 10.609375 41.09375 15.308594 40.652344 19.96875 39.976562 C 19.800781 40.660156 19.65625 41.347656 19.523438 42.039062 C 19.484375 42.039062 19.457031 42.039062 19.417969 42.046875 C 15.101562 42.683594 10.757812 43.222656 6.507812 44.261719 Z M 23.574219 59.671875 C 24.492188 61.257812 25.753906 62.671875 26.957031 64.023438 C 27.625 64.78125 28.316406 65.515625 29.011719 66.242188 C 29.226562 66.460938 29.445312 66.679688 29.660156 66.902344 C 29.679688 66.921875 29.746094 66.996094 29.8125 67.070312 C 29.59375 68.324219 29.144531 69.515625 28.441406 70.550781 C 28.417969 70.511719 28.390625 70.46875 28.351562 70.433594 C 26.121094 68.15625 24.578125 65.390625 23.808594 62.296875 C 23.632812 61.609375 22.570312 61.902344 22.746094 62.59375 C 23.558594 65.859375 25.21875 68.808594 27.574219 71.21875 C 27.648438 71.289062 27.722656 71.335938 27.800781 71.355469 C 27.488281 71.703125 27.132812 72.023438 26.746094 72.3125 C 26.277344 72.65625 25.761719 72.941406 25.234375 73.171875 C 24.050781 71.988281 23.074219 70.660156 22.28125 69.191406 C 21.945312 68.566406 20.992188 69.125 21.328125 69.75 C 22.078125 71.144531 23 72.421875 24.082031 73.566406 C 23.949219 73.601562 23.816406 73.632812 23.675781 73.660156 C 22.789062 73.851562 22.632812 73.765625 22.011719 73.171875 C 21.59375 72.773438 21.203125 72.355469 20.84375 71.90625 C 18.003906 68.449219 16.726562 63.6875 17.570312 59.289062 C 18.0625 59.847656 18.714844 60.25 19.441406 60.464844 C 19.332031 61.417969 19.316406 62.363281 19.40625 63.320312 C 19.472656 64.023438 20.578125 64.03125 20.511719 63.320312 C 20.433594 62.421875 20.441406 61.535156 20.535156 60.648438 C 21.605469 60.707031 22.804688 60.425781 23.574219 59.671875 Z M 22.503906 57.21875 C 22.546875 57.117188 22.5625 57 22.523438 56.867188 C 22.488281 56.699219 22.445312 56.527344 22.40625 56.359375 C 23.113281 56.765625 23.425781 57.558594 23.171875 58.269531 C 23.132812 58.328125 23.105469 58.386719 23.089844 58.453125 C 22.996094 58.644531 22.847656 58.820312 22.664062 58.980469 C 21.972656 59.566406 20.820312 59.664062 19.957031 59.457031 C 19.046875 59.246094 18.207031 58.652344 17.914062 57.726562 C 17.578125 56.675781 18.148438 55.664062 19.175781 55.382812 C 19.214844 55.546875 19.25 55.699219 19.289062 55.859375 C 19.617188 57.085938 20.878906 57.417969 21.988281 57.550781 C 22.28125 57.609375 22.449219 57.433594 22.503906 57.21875 Z M 22.640625 39.808594 C 21.789062 42.632812 21.285156 45.578125 21.042969 48.511719 C 20.828125 51.089844 20.769531 53.777344 21.269531 56.339844 C 20.851562 56.222656 20.460938 56.015625 20.34375 55.589844 C 19.207031 50.949219 19.867188 45.636719 20.9375 41.046875 C 21.476562 38.734375 22.195312 36.394531 23.40625 34.339844 C 24.867188 31.863281 27.347656 29.941406 29.675781 28.328125 C 32.632812 26.273438 35.832031 24.582031 38.914062 22.71875 C 38.972656 22.703125 39.027344 22.675781 39.070312 22.628906 C 40.015625 22.527344 40.90625 21.75 41.039062 20.796875 C 41.039062 20.78125 41.039062 20.765625 41.042969 20.75 C 41.058594 20.671875 41.058594 20.589844 41.039062 20.503906 C 41.039062 20.488281 41.03125 20.472656 41.03125 20.464844 C 41.34375 20.589844 41.648438 20.78125 41.875 21.039062 C 42.34375 21.566406 42.007812 22.085938 41.558594 22.527344 C 40.898438 23.175781 40.054688 23.613281 39.269531 24.070312 C 37.625 25.023438 35.957031 25.925781 34.320312 26.882812 C 31.214844 28.6875 28.109375 30.710938 25.761719 33.472656 C 24.226562 35.277344 23.324219 37.5625 22.640625 39.808594 Z M 73.285156 25.316406 C 72.285156 31.628906 70.347656 38.242188 65.1875 42.414062 C 62.316406 44.734375 58.824219 46.324219 55.386719 47.625 C 51.953125 48.925781 48.386719 49.878906 44.765625 50.496094 C 40.675781 51.199219 36.53125 51.449219 32.382812 51.375 C 31.949219 50.746094 31.554688 50.097656 31.179688 49.429688 C 38.476562 49.371094 45.773438 48.21875 52.613281 45.628906 C 56.019531 44.335938 59.433594 42.789062 62.339844 40.570312 C 64.921875 38.597656 66.890625 36.054688 68.269531 33.121094 C 69.738281 29.984375 70.597656 26.617188 71.171875 23.21875 C 71.902344 23.894531 72.601562 24.589844 73.285156 25.316406 Z M 70.199219 22.34375 C 69.21875 28.488281 67.34375 34.960938 62.40625 39.109375 C 59.683594 41.394531 56.347656 42.972656 53.066406 44.269531 C 49.714844 45.597656 46.234375 46.589844 42.6875 47.257812 C 38.703125 48.007812 34.660156 48.328125 30.613281 48.328125 C 30.34375 47.773438 30.101562 47.214844 29.878906 46.632812 C 36.957031 46.429688 44.003906 45.171875 50.59375 42.566406 C 53.796875 41.296875 56.980469 39.800781 59.71875 37.6875 C 62.214844 35.753906 64.109375 33.273438 65.460938 30.433594 C 66.898438 27.394531 67.757812 24.128906 68.335938 20.816406 C 68.976562 21.308594 69.597656 21.816406 70.199219 22.34375 Z M 67.34375 20.070312 C 66.347656 25.992188 64.484375 32.171875 59.777344 36.210938 C 57.179688 38.433594 54.007812 39.984375 50.859375 41.269531 C 47.703125 42.558594 44.429688 43.550781 41.089844 44.25 C 37.273438 45.046875 33.386719 45.445312 29.492188 45.539062 C 29.058594 44.210938 28.742188 42.847656 28.566406 41.445312 C 30.929688 40.851562 33.242188 40.085938 35.445312 39.023438 C 39.378906 37.128906 42.769531 34.332031 46.085938 31.535156 C 51.792969 26.726562 57.621094 22.066406 63.617188 17.640625 C 64.910156 18.386719 66.148438 19.195312 67.34375 20.070312 Z M 58.601562 20.015625 C 54.910156 22.851562 51.277344 25.757812 47.703125 28.738281 C 44.253906 31.617188 40.890625 34.660156 36.992188 36.9375 C 32.792969 39.394531 28.089844 40.554688 23.339844 41.40625 C 23.523438 40.695312 23.726562 40 23.964844 39.308594 L 23.964844 39.300781 C 27.890625 38.5 31.75 37.238281 35.222656 35.191406 C 38.9375 32.996094 42.183594 30.101562 45.457031 27.320312 C 52.320312 21.484375 59.636719 16.230469 67.117188 11.214844 C 71.367188 8.367188 75.664062 5.601562 79.964844 2.839844 C 80.324219 3.339844 80.691406 3.839844 81.050781 4.34375 C 73.371094 9.285156 65.847656 14.46875 58.601562 20.015625 Z M 58.601562 20.015625 " fill-opacity="1" fill-rule="nonzero"/><path fill="#000000" d="M 82.3125 4.207031 C 81.746094 3.421875 81.183594 2.644531 80.617188 1.855469 C 80.527344 1.730469 80.410156 1.660156 80.285156 1.636719 C 80.226562 1.601562 80.160156 1.578125 80.089844 1.578125 C 80 1.5625 79.90625 1.585938 79.808594 1.628906 C 76.308594 2.8125 72.828125 4.050781 69.355469 5.320312 C 65.871094 6.597656 62.40625 7.980469 58.84375 9.035156 C 52.15625 11.027344 45.484375 13.148438 39.347656 16.539062 C 39.296875 16.566406 39.261719 16.597656 39.222656 16.632812 C 39.171875 16.589844 39.128906 16.546875 39.078125 16.507812 C 38.144531 15.78125 36.792969 15.578125 35.980469 16.589844 C 35.398438 17.308594 35.246094 18.132812 35.371094 18.9375 C 24.945312 25.898438 15.140625 33.714844 5.164062 41.289062 C 5.164062 41.289062 5.15625 41.289062 5.15625 41.296875 C 4.980469 41.363281 4.839844 41.523438 4.871094 41.789062 C 4.980469 42.90625 5.289062 44.007812 5.582031 45.078125 C 5.632812 45.269531 5.75 45.378906 5.898438 45.429688 C 6 45.480469 6.125 45.496094 6.265625 45.46875 C 10.558594 44.375 14.957031 43.816406 19.339844 43.167969 C 19.097656 44.746094 18.941406 46.320312 18.832031 47.816406 C 18.683594 49.960938 18.65625 52.167969 18.980469 54.3125 C 17.472656 54.636719 16.484375 56.109375 16.753906 57.636719 C 16.761719 57.679688 16.777344 57.734375 16.785156 57.777344 C 15.21875 63.171875 16.84375 69.324219 20.667969 73.40625 C 21.085938 73.851562 21.597656 74.492188 22.15625 74.777344 C 22.628906 75.019531 23.132812 74.886719 23.65625 74.792969 C 24.953125 74.558594 26.222656 74.042969 27.296875 73.265625 C 29.335938 71.796875 30.5625 69.535156 30.929688 67.070312 C 30.996094 66.921875 30.988281 66.753906 30.886719 66.601562 C 30.128906 65.515625 28.976562 64.605469 28.097656 63.628906 C 26.695312 62.078125 25.21875 60.449219 24.25 58.578125 C 24.742188 57.066406 23.816406 55.574219 22.304688 55.113281 C 22.265625 55.097656 22.230469 55.097656 22.195312 55.089844 C 21.902344 52.960938 21.972656 50.765625 22.144531 48.652344 C 22.304688 46.613281 22.597656 44.570312 23.058594 42.574219 C 24.542969 42.316406 26.027344 42.039062 27.492188 41.695312 C 27.707031 43.234375 28.058594 44.742188 28.558594 46.195312 C 28.574219 46.273438 28.59375 46.347656 28.640625 46.414062 C 28.953125 47.324219 29.328125 48.210938 29.761719 49.070312 C 29.777344 49.121094 29.804688 49.167969 29.835938 49.210938 C 30.355469 50.246094 30.953125 51.242188 31.625 52.199219 C 31.648438 52.226562 31.671875 52.257812 31.691406 52.277344 C 31.78125 52.390625 31.914062 52.46875 32.105469 52.476562 C 39.914062 52.652344 47.777344 51.597656 55.132812 48.902344 C 58.558594 47.648438 62 46.128906 64.96875 43.976562 C 67.71875 41.980469 69.820312 39.390625 71.289062 36.328125 C 72.945312 32.847656 73.835938 29.070312 74.421875 25.28125 C 74.429688 25.242188 74.429688 25.199219 74.429688 25.164062 C 74.445312 25.023438 74.398438 24.871094 74.28125 24.738281 C 71.449219 21.675781 68.195312 19.046875 64.609375 16.917969 C 65.988281 15.90625 67.375 14.910156 68.777344 13.925781 C 73.167969 10.84375 77.628906 7.863281 82.136719 4.960938 C 82.195312 4.925781 82.238281 4.882812 82.269531 4.835938 C 82.421875 4.691406 82.496094 4.457031 82.3125 4.207031 Z M 59.527344 9.992188 C 62.957031 8.957031 66.289062 7.621094 69.652344 6.394531 C 71.714844 5.636719 73.78125 4.894531 75.859375 4.167969 C 69.585938 8.214844 63.34375 12.324219 57.296875 16.691406 C 53.816406 19.210938 50.394531 21.808594 47.070312 24.539062 C 43.644531 27.359375 40.382812 30.417969 36.714844 32.929688 C 32.976562 35.492188 28.828125 37.097656 24.433594 38.074219 C 25.425781 35.667969 26.824219 33.722656 28.890625 31.9375 C 31.882812 29.347656 35.449219 27.527344 38.878906 25.574219 C 40.265625 24.78125 42.46875 23.871094 43.128906 22.269531 C 43.722656 20.824219 42.285156 19.578125 40.984375 19.277344 C 40.90625 19.253906 40.824219 19.253906 40.75 19.269531 C 40.558594 18.628906 40.316406 18.011719 39.964844 17.46875 C 46.117188 14.0625 52.8125 12.015625 59.527344 9.992188 Z M 36.605469 17.734375 C 37.21875 16.398438 38.570312 17.34375 39.113281 18.234375 C 39.5625 18.960938 39.753906 19.820312 39.945312 20.640625 C 39.796875 21.191406 39.296875 21.574219 38.71875 21.53125 C 38.679688 21.523438 38.652344 21.53125 38.621094 21.53125 C 37.332031 20.933594 35.929688 19.203125 36.605469 17.734375 Z M 35.714844 20.03125 C 36.125 20.90625 36.824219 21.691406 37.609375 22.210938 C 34.921875 23.804688 32.167969 25.308594 29.570312 27.058594 C 27.121094 28.714844 24.566406 30.648438 22.871094 33.121094 C 21.710938 34.808594 20.878906 36.761719 20.277344 38.816406 C 16.109375 39.441406 11.894531 39.84375 7.769531 40.679688 C 16.976562 33.648438 26.085938 26.476562 35.714844 20.03125 Z M 6.507812 44.261719 C 6.316406 43.585938 6.132812 42.898438 6.03125 42.207031 C 10.609375 41.09375 15.308594 40.652344 19.96875 39.976562 C 19.800781 40.660156 19.65625 41.347656 19.523438 42.039062 C 19.484375 42.039062 19.457031 42.039062 19.417969 42.046875 C 15.101562 42.683594 10.757812 43.222656 6.507812 44.261719 Z M 23.574219 59.671875 C 24.492188 61.257812 25.753906 62.671875 26.957031 64.023438 C 27.625 64.78125 28.316406 65.515625 29.011719 66.242188 C 29.226562 66.460938 29.445312 66.679688 29.660156 66.902344 C 29.679688 66.921875 29.746094 66.996094 29.8125 67.070312 C 29.59375 68.324219 29.144531 69.515625 28.441406 70.550781 C 28.417969 70.511719 28.390625 70.46875 28.351562 70.433594 C 26.121094 68.15625 24.578125 65.390625 23.808594 62.296875 C 23.632812 61.609375 22.570312 61.902344 22.746094 62.59375 C 23.558594 65.859375 25.21875 68.808594 27.574219 71.21875 C 27.648438 71.289062 27.722656 71.335938 27.800781 71.355469 C 27.488281 71.703125 27.132812 72.023438 26.746094 72.3125 C 26.277344 72.65625 25.761719 72.941406 25.234375 73.171875 C 24.050781 71.988281 23.074219 70.660156 22.28125 69.191406 C 21.945312 68.566406 20.992188 69.125 21.328125 69.75 C 22.078125 71.144531 23 72.421875 24.082031 73.566406 C 23.949219 73.601562 23.816406 73.632812 23.675781 73.660156 C 22.789062 73.851562 22.632812 73.765625 22.011719 73.171875 C 21.59375 72.773438 21.203125 72.355469 20.84375 71.90625 C 18.003906 68.449219 16.726562 63.6875 17.570312 59.289062 C 18.0625 59.847656 18.714844 60.25 19.441406 60.464844 C 19.332031 61.417969 19.316406 62.363281 19.40625 63.320312 C 19.472656 64.023438 20.578125 64.03125 20.511719 63.320312 C 20.433594 62.421875 20.441406 61.535156 20.535156 60.648438 C 21.605469 60.707031 22.804688 60.425781 23.574219 59.671875 Z M 22.503906 57.21875 C 22.546875 57.117188 22.5625 57 22.523438 56.867188 C 22.488281 56.699219 22.445312 56.527344 22.40625 56.359375 C 23.113281 56.765625 23.425781 57.558594 23.171875 58.269531 C 23.132812 58.328125 23.105469 58.386719 23.089844 58.453125 C 22.996094 58.644531 22.847656 58.820312 22.664062 58.980469 C 21.972656 59.566406 20.820312 59.664062 19.957031 59.457031 C 19.046875 59.246094 18.207031 58.652344 17.914062 57.726562 C 17.578125 56.675781 18.148438 55.664062 19.175781 55.382812 C 19.214844 55.546875 19.25 55.699219 19.289062 55.859375 C 19.617188 57.085938 20.878906 57.417969 21.988281 57.550781 C 22.28125 57.609375 22.449219 57.433594 22.503906 57.21875 Z M 22.640625 39.808594 C 21.789062 42.632812 21.285156 45.578125 21.042969 48.511719 C 20.828125 51.089844 20.769531 53.777344 21.269531 56.339844 C 20.851562 56.222656 20.460938 56.015625 20.34375 55.589844 C 19.207031 50.949219 19.867188 45.636719 20.9375 41.046875 C 21.476562 38.734375 22.195312 36.394531 23.40625 34.339844 C 24.867188 31.863281 27.347656 29.941406 29.675781 28.328125 C 32.632812 26.273438 35.832031 24.582031 38.914062 22.71875 C 38.972656 22.703125 39.027344 22.675781 39.070312 22.628906 C 40.015625 22.527344 40.90625 21.75 41.039062 20.796875 C 41.039062 20.78125 41.039062 20.765625 41.042969 20.75 C 41.058594 20.671875 41.058594 20.589844 41.039062 20.503906 C 41.039062 20.488281 41.03125 20.472656 41.03125 20.464844 C 41.34375 20.589844 41.648438 20.78125 41.875 21.039062 C 42.34375 21.566406 42.007812 22.085938 41.558594 22.527344 C 40.898438 23.175781 40.054688 23.613281 39.269531 24.070312 C 37.625 25.023438 35.957031 25.925781 34.320312 26.882812 C 31.214844 28.6875 28.109375 30.710938 25.761719 33.472656 C 24.226562 35.277344 23.324219 37.5625 22.640625 39.808594 Z M 73.285156 25.316406 C 72.285156 31.628906 70.347656 38.242188 65.1875 42.414062 C 62.316406 44.734375 58.824219 46.324219 55.386719 47.625 C 51.953125 48.925781 48.386719 49.878906 44.765625 50.496094 C 40.675781 51.199219 36.53125 51.449219 32.382812 51.375 C 31.949219 50.746094 31.554688 50.097656 31.179688 49.429688 C 38.476562 49.371094 45.773438 48.21875 52.613281 45.628906 C 56.019531 44.335938 59.433594 42.789062 62.339844 40.570312 C 64.921875 38.597656 66.890625 36.054688 68.269531 33.121094 C 69.738281 29.984375 70.597656 26.617188 71.171875 23.21875 C 71.902344 23.894531 72.601562 24.589844 73.285156 25.316406 Z M 70.199219 22.34375 C 69.21875 28.488281 67.34375 34.960938 62.40625 39.109375 C 59.683594 41.394531 56.347656 42.972656 53.066406 44.269531 C 49.714844 45.597656 46.234375 46.589844 42.6875 47.257812 C 38.703125 48.007812 34.660156 48.328125 30.613281 48.328125 C 30.34375 47.773438 30.101562 47.214844 29.878906 46.632812 C 36.957031 46.429688 44.003906 45.171875 50.59375 42.566406 C 53.796875 41.296875 56.980469 39.800781 59.71875 37.6875 C 62.214844 35.753906 64.109375 33.273438 65.460938 30.433594 C 66.898438 27.394531 67.757812 24.128906 68.335938 20.816406 C 68.976562 21.308594 69.597656 21.816406 70.199219 22.34375 Z M 67.34375 20.070312 C 66.347656 25.992188 64.484375 32.171875 59.777344 36.210938 C 57.179688 38.433594 54.007812 39.984375 50.859375 41.269531 C 47.703125 42.558594 44.429688 43.550781 41.089844 44.25 C 37.273438 45.046875 33.386719 45.445312 29.492188 45.539062 C 29.058594 44.210938 28.742188 42.847656 28.566406 41.445312 C 30.929688 40.851562 33.242188 40.085938 35.445312 39.023438 C 39.378906 37.128906 42.769531 34.332031 46.085938 31.535156 C 51.792969 26.726562 57.621094 22.066406 63.617188 17.640625 C 64.910156 18.386719 66.148438 19.195312 67.34375 20.070312 Z M 58.601562 20.015625 C 54.910156 22.851562 51.277344 25.757812 47.703125 28.738281 C 44.253906 31.617188 40.890625 34.660156 36.992188 36.9375 C 32.792969 39.394531 28.089844 40.554688 23.339844 41.40625 C 23.523438 40.695312 23.726562 40 23.964844 39.308594 L 23.964844 39.300781 C 27.890625 38.5 31.75 37.238281 35.222656 35.191406 C 38.9375 32.996094 42.183594 30.101562 45.457031 27.320312 C 52.320312 21.484375 59.636719 16.230469 67.117188 11.214844 C 71.367188 8.367188 75.664062 5.601562 79.964844 2.839844 C 80.324219 3.339844 80.691406 3.839844 81.050781 4.34375 C 73.371094 9.285156 65.847656 14.46875 58.601562 20.015625 Z M 58.601562 20.015625 " fill-opacity="1" fill-rule="nonzero"/></svg>